<svg id="Group_19935" data-name="Group 19935" xmlns="http://www.w3.org/2000/svg" xmlns:xlink="http://www.w3.org/1999/xlink" width="70.819" height="25.695" viewBox="0 0 70.819 25.695">
  <defs>
    <clipPath id="clip-path">
      <rect id="Rectangle_3775" data-name="Rectangle 3775" width="70.819" height="25.695" fill="none"/>
    </clipPath>
  </defs>
  <g id="Group_19934" data-name="Group 19934" clip-path="url(#clip-path)">
    <path id="Path_197" data-name="Path 197" d="M70.15,18.872c-.4.35.2.836.277,1.1.579,2.137-2.678,2.239-4.068,2.385-1.317.139-2.663.151-3.988.2a6.859,6.859,0,0,1-9.746,1.811c-.929-.713-1.283-1.88-2.513-2.01-3.5-.369-8.084.051-11.731.006-4.933-.06-9.961-.218-14.894-.349-.654-.017-3.179-.113-3.523.176-.241.2-.659,1.1-.981,1.447A6.754,6.754,0,0,1,9,23.28c-.428-.527-.9-1.809-1.279-2.071-.733-.509-3.171-1.18-4.2-1.665C.42,18.08-.317,17.026.111,13.4c.132-1.124.959-.963,1.016-1.2.15-1.041-.31-5.664.2-6.211.625-.664,4.3-.309,5.407-.371,2.393-.134,2.279-.382,4.152-1.376C17.966.489,22.422-.279,30.522.078,36.4.337,39.888,1.557,45.007,4.185c2.078,1.067,5.122,3.275,7.285,3.6,4.193.633,8.438.4,12.563,1.675,1.335.413,5.419,2.031,5.742,3.471a17.914,17.914,0,0,1,.2,3.816,11.02,11.02,0,0,1-.331,2.178c-.058.048-.289-.079-.316-.056M28.421,1.928a40.52,40.52,0,0,0-8.716.58,33.6,33.6,0,0,0-7.477,3.076A26.35,26.35,0,0,1,9.542,7.252a30.209,30.209,0,0,1-3.14.21c-1.141.051-2.3-.051-3.441-.007v5.109c0,.694-.988,1.289-1.009,1.374a7.041,7.041,0,0,0,.189,2.628c.611,1.068,4.036,1.811,5.094,2.612.41.124.226-.866.291-1.21C9.18,9.222,22.242,11.33,20.884,20.184l29.05.338c.25-.033-.09-1.285-.086-1.593a7.2,7.2,0,0,1,3.14-5.585,6.739,6.739,0,0,1,10.107,7.342l5.025-.333a6.6,6.6,0,0,1,.843-3.61c-.379-.883.066-2.54-.26-3.257-.566-1.245-5.99-2.772-7.388-3-11.267-1.813-22.654-.514-33.99-1.017A32.706,32.706,0,0,1,17.034,7.536c-.646-.275-1.927-.752-2.009-1.516-.209-1.937,2.7-.16,3.428.1a34.546,34.546,0,0,0,9.969,1.5Zm18.76,5.7A7.053,7.053,0,0,0,45.51,6.53c-3.369-1.838-7.016-3.65-10.853-4.222-1.453-.216-2.935-.222-4.393-.381v5.7ZM18.969,19.033a4.8,4.8,0,1,0-4.8,4.8,4.8,4.8,0,0,0,4.8-4.8m42.452-.007A4.821,4.821,0,1,0,56.6,23.847a4.821,4.821,0,0,0,4.821-4.821" transform="translate(0 0.001)" fill="#1a1818"/>
  </g>
</svg>
