<svg xmlns="http://www.w3.org/2000/svg" width="53.178" height="44.006" viewBox="0 0 53.178 44.006">
  <g id="Group_21953" data-name="Group 21953" transform="translate(0.241 0.25)">
    <g id="Group_21957" data-name="Group 21957">
      <path id="Path_18610" data-name="Path 18610" d="M46.846,18.116c-.412-.186-1.53-.437-1.61-.872l0-14.625c-.03-.269-.189-.81-.436-.914L2.27,1.644a1.4,1.4,0,0,0-.637,1.375V27.58c-.137.28.445,1.134.61,1.134H25.65l-.134,1.61H1.839c-.378,0-1.647-1.046-1.639-1.581C-.2,20.032.147,11.228.024,2.483A2.438,2.438,0,0,1,2.371,0l42.4,0a2.693,2.693,0,0,1,2.076,1.948Z" transform="translate(0 -0.001)" fill="#4d2d7c" stroke="#4d2d7c" stroke-width="0.5"/>
      <path id="Path_18611" data-name="Path 18611" d="M214.816,134.284a12.742,12.742,0,1,1-9.821,20.475,12.8,12.8,0,0,1,9.821-20.475m8.161,20.576a11.122,11.122,0,0,0-2.546-17.549c-9.344-5.071-19.792,4.652-15.406,14.333a11.135,11.135,0,0,0,17.952,3.216" transform="translate(-175.238 -116.267)" fill="#4d2d7c" stroke="#4d2d7c" stroke-width="0.5"/>
      <path id="Path_18612" data-name="Path 18612" d="M38.472,49.059c2.108-.384,2.63,2.553,3.791,3.792,1.5.274,4.45-.455,4.44,1.878,0,.964-1.4,2.232-1.46,2.836-.1.974,2.42,2.454,1.107,4.066-.98,1.2-3.381.32-4.085.744-.428.258-1.57,2.783-2.146,3.354a1.709,1.709,0,0,1-2.485-.065c-.526-.566-1.727-3.077-2.078-3.288-.9-.539-4.349.868-4.438-1.744-.039-1.134,1.508-2.587,1.466-3.065-.065-.726-1.654-1.8-1.446-3.232.323-2.207,3.379-.808,4.289-1.365.93-.569,1.626-3.652,3.045-3.911m-2.714,5.6c-.877.146-2.1-.107-3.018,0,.467.953,1.491,1.917,1.486,3.018,0,1.009-1.057,1.988-1.486,2.884h3.018c1.235,0,2.61,3.772,3.087,3.89.184.046.23-.111.313-.222.614-.827,1.842-3.668,2.905-3.668h2.884c-.195-.908-1.44-1.981-1.454-2.881-.016-1.021,1.187-2.06,1.454-3.021H42.062c-1.194,0-2.833-3.891-3.087-3.892-.628,0-1.746,3.647-3.218,3.892" transform="translate(-26.943 -42.448)" fill="#4d2d7c" stroke="#4d2d7c" stroke-width="0.5"/>
      <path id="Path_18613" data-name="Path 18613" d="M178.53,76.05l17.279-.032a.875.875,0,1,1,0,1.749l-16.9,0c-1.165.024-1.472-1.334-.374-1.715" transform="translate(-153.991 -65.82)" fill="#4d2d7c" stroke="#4d2d7c" stroke-width="0.5"/>
      <path id="Path_18614" data-name="Path 18614" d="M196.5,45.246c.307.309.244,1.206-.271,1.342-5.842.241-11.747.027-17.612.109-.926-.119-1.2-1.51.135-1.622,5.451-.457,11.53.358,17.048,0,.208.017.553.023.7.171" transform="translate(-153.983 -38.904)" fill="#4d2d7c" stroke="#4d2d7c" stroke-width="0.5"/>
      <path id="Path_18615" data-name="Path 18615" d="M178.559,107.053l13.389-.031a.809.809,0,1,1,0,1.615l-13.156,0a.824.824,0,0,1-.233-1.588" transform="translate(-154.155 -92.665)" fill="#4d2d7c" stroke="#4d2d7c" stroke-width="0.5"/>
      <path id="Path_18616" data-name="Path 18616" d="M186.211,137.745a23.272,23.272,0,0,1-2.082,1.605,40.544,40.544,0,0,1-5.489,0,.825.825,0,1,1,.08-1.647Z" transform="translate(-153.988 -119.226)" fill="#4d2d7c" stroke="#4d2d7c" stroke-width="0.5"/>
      <path id="Path_18617" data-name="Path 18617" d="M182.279,168.041c-.253.29-.66,1.288-.87,1.477a7.6,7.6,0,0,1-3.065.009c-.472-.3-.186-1.486.38-1.486Z" transform="translate(-154.214 -145.499)" fill="#4d2d7c" stroke="#4d2d7c" stroke-width="0.5"/>
      <path id="Path_18618" data-name="Path 18618" d="M241.769,198.637c-.327-.319-2.454-2.471-2.521-2.642-.247-.632.09-1.269.784-1.2.76.073,3.233,3.174,4.038,3.755l8.317-8.315c1-.781,2.117.218,1.21,1.21l-9.007,8.967a.859.859,0,0,1-.853.084,26.994,26.994,0,0,1-1.968-1.857" transform="translate(-207.084 -164.471)" fill="#4d2d7c" stroke="#4d2d7c" stroke-width="0.5"/>
    </g>
  </g>
</svg>
