<svg xmlns="http://www.w3.org/2000/svg" xmlns:xlink="http://www.w3.org/1999/xlink" width="86" height="86" viewBox="0 0 86 86">
  <defs>
    <clipPath id="clip-path">
      <rect id="Rectangle_5335" data-name="Rectangle 5335" width="51.484" height="53.412" fill="#4d2d7c"/>
    </clipPath>
  </defs>
  <g id="Group_21977" data-name="Group 21977" transform="translate(-9615 -5793)">
    <circle id="Ellipse_137" data-name="Ellipse 137" cx="43" cy="43" r="43" transform="translate(9615 5793)" fill="#fff"/>
    <g id="Group_21951" data-name="Group 21951" transform="translate(9632.258 5809.294)">
      <g id="Group_21950" data-name="Group 21950" transform="translate(0 0)" clip-path="url(#clip-path)">
        <path id="Path_18608" data-name="Path 18608" d="M26.6,53.412H25.026A6.891,6.891,0,0,1,20.766,51c-.671-.833-.971-2.047-2.155-2.333-1.27-.306-1.575.142-2.613.487a6.44,6.44,0,0,1-8.571-5.571c-.082-1.114.392-1.991-.19-3.064-.75-1.381-2.391-1.176-3.681-1.816A6.664,6.664,0,0,1,.548,35.424l-.54-2.1v-.673c.154-.532.189-1.08.343-1.62.411-1.433,1.176-1.863,1.882-2.943,1.484-2.27-1.009-3.318-1.685-5.235l-.54-2.1c.014-.221-.02-.453,0-.673a6.749,6.749,0,0,1,3.252-5.22c1.152-.647,3-.694,3.752-1.633.9-1.115.335-2.158.416-3.4a6.483,6.483,0,0,1,7.435-5.894c1.444.211,2.391,1.263,3.909.745,1.191-.407,1.542-1.915,2.381-2.78a6.506,6.506,0,0,1,9.37.176c.838.934,1.087,2.26,2.41,2.639,1.456.418,2.351-.564,3.719-.779A6.469,6.469,0,0,1,44.1,9.817c.074,1.086-.35,1.855.122,2.907.664,1.478,2.219,1.308,3.5,1.882a6.391,6.391,0,0,1,2.633,9.446c-.528.777-1.345,1.241-1.444,2.257-.175,1.8.9,2.086,1.666,3.394a6.413,6.413,0,0,1-3.173,9.237c-.935.345-2.092.334-2.8,1.127-1.041,1.164-.4,2.307-.514,3.638a6.459,6.459,0,0,1-8.585,5.448,7.742,7.742,0,0,0-1.352-.555c-2.556-.355-2.59,1.812-4.032,3.129A7.681,7.681,0,0,1,26.6,53.412M25.222,3.62c-1.538.264-1.854,1.607-2.666,2.607a6.224,6.224,0,0,1-5.325,2.188c-1.828-.164-3.349-1.822-5.16-.331-1.529,1.258-.833,2.489-.952,4.1a6.168,6.168,0,0,1-3,4.743c-1.529.865-3.721.582-4.332,2.624-.679,2.265,1.221,2.946,1.962,4.728a6.085,6.085,0,0,1,.034,4.786c-.759,1.833-2.933,2.775-1.868,5.127.689,1.522,1.938,1.387,3.221,1.828a6.216,6.216,0,0,1,3.983,5.105c.123,1.559-.583,3.116,1.013,4.26,1.9,1.366,3.123-.185,4.887-.371a6.169,6.169,0,0,1,5.536,2.177c.778.957.985,2.08,2.334,2.49,2.872.872,3.229-1.933,4.848-3.28A6.241,6.241,0,0,1,34.393,45c1.7.158,2.906,1.572,4.718.563,2.1-1.168,1.029-3.318,1.43-5.19a6.158,6.158,0,0,1,2.852-3.879c1.531-.87,3.7-.6,4.352-2.6.636-1.955-.63-2.543-1.492-3.891a6.307,6.307,0,0,1-.345-6.024c.78-1.609,2.612-2.327,1.8-4.523-.733-1.99-2.445-1.6-4-2.391a6.159,6.159,0,0,1-3.166-4.015c-.413-1.87.649-3.809-1.273-5.123-1.722-1.178-3.269.349-4.988.5a6.253,6.253,0,0,1-4.656-1.511C28.114,5.559,27.9,3.16,25.222,3.62" transform="translate(0 0)" fill="#4d2d7c"/>
        <path id="Path_18609" data-name="Path 18609" d="M23.185,31.134A1.845,1.845,0,0,1,25.67,31.1l4.376,5.72L41.107,25.774A1.82,1.82,0,1,1,43.623,28.4L31.283,40.747c-1.094.9-1.927.956-2.921-.114a62.824,62.824,0,0,1-5.242-6.989,1.885,1.885,0,0,1,.065-2.511" transform="translate(-6.759 -7.529)" fill="#4d2d7c"/>
      </g>
    </g>
  </g>
</svg>
