<svg xmlns="http://www.w3.org/2000/svg" xmlns:xlink="http://www.w3.org/1999/xlink" width="98" height="98" viewBox="0 0 98 98">
  <defs>
    <clipPath id="clip-path">
      <rect id="Rectangle_4294" data-name="Rectangle 4294" width="45.426" height="45.394" fill="#4d2d7c"/>
    </clipPath>
  </defs>
  <g id="Group_21083" data-name="Group 21083" transform="translate(-104.407 -1321)">
    <g id="Ellipse_109" data-name="Ellipse 109" transform="translate(104.407 1321)" fill="#f9f5ff" stroke="#4d2d7c" stroke-width="2">
      <circle cx="49" cy="49" r="49" stroke="none"/>
      <circle cx="49" cy="49" r="48" fill="none"/>
    </g>
    <g id="Group_20995" data-name="Group 20995" transform="translate(130.54 1347.981)">
      <g id="Group_20995-2" data-name="Group 20995" clip-path="url(#clip-path)">
        <path id="Path_17772" data-name="Path 17772" d="M24.7,0c.655.156,1.338.195,2,.313A22.834,22.834,0,0,1,44.895,17.749l.5,2.947c-.069,1.3.093,2.684,0,3.969-.7,9.656-8.355,18.165-17.748,20.194A22.749,22.749,0,0,1,.555,17.671C2.611,8.327,11.093.7,20.732,0ZM22.413,3.053A19.664,19.664,0,0,0,5.6,32.289c7.222,13,25.932,13.389,33.792.779A19.663,19.663,0,0,0,22.413,3.053" transform="translate(0 -0.001)" fill="#4d2d7c"/>
        <path id="Path_17773" data-name="Path 17773" d="M183.074,133.045c.042,1.169.144,2.679-1.41,2.8-1.662.133-1.708-1.642-1.667-2.822-2.434-.433-4.873-2.432-4.487-5.136a1.545,1.545,0,0,1,2.642-.768c.478.5.332.931.493,1.491.6,2.074,5.863,1.959,5.919-.458a2.286,2.286,0,0,0-1.5-2.256c-2.412-1.223-5.287-1.194-6.819-3.86-2-3.477-.03-7.017,3.754-7.712.032-1.061-.115-2.588,1.315-2.748,1.822-.2,1.808,1.414,1.792,2.748,2.441.469,4.875,2.4,4.486,5.136a1.57,1.57,0,0,1-2.59.811c-.737-.7-.107-1.685-1.245-2.44-1.191-.791-4.767-.8-5.113.9-.608,2.992,3.344,3.277,5.334,4.167a5.607,5.607,0,0,1,3.621,6.016c-.231,2.317-2.45,3.674-4.523,4.124" transform="translate(-158.834 -100.997)" fill="#4d2d7c"/>
      </g>
    </g>
  </g>
</svg>
