<svg id="Group_21311" data-name="Group 21311" xmlns="http://www.w3.org/2000/svg" xmlns:xlink="http://www.w3.org/1999/xlink" width="48.958" height="73.732" viewBox="0 0 48.958 73.732">
  <defs>
    <clipPath id="clip-path">
      <rect id="Rectangle_4499" data-name="Rectangle 4499" width="48.958" height="73.732" fill="#4d2d7c"/>
    </clipPath>
  </defs>
  <g id="Group_21310" data-name="Group 21310" transform="translate(0 0)" clip-path="url(#clip-path)">
    <path id="Path_17907" data-name="Path 17907" d="M.029,22.61A24.791,24.791,0,0,1,18.874.648,24.548,24.548,0,0,1,48.781,27.7c-1.2,10.4-9.283,17.826-15,25.882-.089.126-.49.608-.373.7a30.287,30.287,0,0,1,11.079,3.381C49,60.293,50.9,64.466,46.355,68.334,42.053,72,33,73.471,27.507,73.732H21.465l-4.656-.45a41.529,41.529,0,0,1-10.4-2.693C3.7,69.39.717,67.464.029,64.371V62.788c.838-3.031,3.661-4.866,6.378-6.074a37.591,37.591,0,0,1,9.161-2.5C10.075,46.35,1.937,38.727.358,28.833A18.139,18.139,0,0,0,.029,26.5c.067-1.271-.09-2.628,0-3.888m39.8-13.342C27.278-3.471,5.306,4.024,3.068,21.693,2.114,29.231,4.826,34.841,8.975,40.8c4.821,6.925,10.656,13.279,15.44,20.259.212.056.234-.14.334-.239a71.711,71.711,0,0,0,4.283-5.793c5.624-7.36,15.138-17.454,16.7-26.629a21.917,21.917,0,0,0-5.9-19.129M16.978,56.925c-3.338.2-11.611,2.451-13.559,5.3C1.518,65,5.741,67.164,7.8,68.04c8.74,3.712,23.7,3.708,32.544.328,3.611-1.38,8.62-4.213,3.462-7.713-3.421-2.32-8.185-3.139-12.2-3.784l-.58.294-5.473,7.482a1.492,1.492,0,0,1-2.134,0L17.88,57.089c-.27-.317-.571-.184-.9-.164" transform="translate(0 0)" fill="#4d2d7c"/>
    <path id="Path_17908" data-name="Path 17908" d="M22.092,13.1c13.478-1.279,15.041,19.1,1.825,20.116C10.8,34.228,9.164,14.329,22.092,13.1m.141,2.877c-9.754,1.105-7.363,16.611,2.734,14.114,8.426-2.084,6.271-15.134-2.734-14.114" transform="translate(1.358 1.342)" fill="#4d2d7c"/>
    <path id="Path_17909" data-name="Path 17909" d="M27.221,6.165c1.111-.244,4.276,1.614,5.264,2.3a19.055,19.055,0,0,1,7.828,12.613c.18,1.262.714,4.279-1.187,4.363s-1.489-2.69-1.672-3.951A16.021,16.021,0,0,0,29.421,9.951c-.8-.436-2.7-.99-3.083-1.665a1.471,1.471,0,0,1,.882-2.121" transform="translate(2.692 0.632)" fill="#4d2d7c"/>
    <path id="Path_17910" data-name="Path 17910" d="M22.141,5.255a1.423,1.423,0,0,1,1.116,2.562c-1.951,1.372-3.249-2.151-1.116-2.562" transform="translate(2.165 0.538)" fill="#4d2d7c"/>
  </g>
</svg>
