<svg xmlns="http://www.w3.org/2000/svg" width="32.055" height="26.59" viewBox="0 0 32.055 26.59">
  <g id="Group_21026" data-name="Group 21026" transform="translate(0.248 0.341)">
    <g id="Group_21027" data-name="Group 21027">
      <path id="Path_17787" data-name="Path 17787" d="M.017,22.96a11.528,11.528,0,0,1,7.025-9.531c.615-.268,1.268-.434,1.885-.7A6.8,6.8,0,0,1,8.5,1.191,6.863,6.863,0,0,1,19.12,7.75a6.982,6.982,0,0,1-3.372,4.983c.659.28,1.354.463,2.007.757a11.551,11.551,0,0,1,6.9,11.711c-.109,1.092-1.307,1.037-1.412,0-.171-1.7.124-2.741-.464-4.511-2.348-7.07-12.027-9.073-17.631-4.546-3.013,2.434-4.013,5.566-3.81,9.4a.7.7,0,0,1-1.324-.064c.04-.825-.054-1.7,0-2.518M11.742,1.418a5.471,5.471,0,1,0,5.307,8.192,5.492,5.492,0,0,0-5.307-8.192" transform="translate(0 -0.001)" fill="#4d2d7c" stroke="#4d2d7c" stroke-width="0.5"/>
      <path id="Path_17788" data-name="Path 17788" d="M142.7,28a.094.094,0,0,0,.036.125c.117.077.471.141.639.212a9.155,9.155,0,0,1,5.839,9.52.684.684,0,0,1-1.318.273,10.074,10.074,0,0,0-.883-4.891,8.28,8.28,0,0,0-6.371-4.2c-.566-.077-1.59.122-1.678-.662-.1-.872.939-.727,1.478-.829,4.377-.83,4.359-7.288-.06-8.076-.5-.089-1.357.062-1.428-.666-.131-1.341,2.338-.547,2.971-.262a5.47,5.47,0,0,1,1.239,9.145c-.1.091-.444.285-.462.307" transform="translate(-117.734 -15.301)" fill="#4d2d7c" stroke="#4d2d7c" stroke-width="0.5"/>
    </g>
  </g>
</svg>
