<svg id="Group_21029" data-name="Group 21029" xmlns="http://www.w3.org/2000/svg" xmlns:xlink="http://www.w3.org/1999/xlink" width="31.538" height="35.346" viewBox="0 0 31.538 35.346">
  <defs>
    <clipPath id="clip-path">
      <rect id="Rectangle_4315" data-name="Rectangle 4315" width="31.538" height="35.346" fill="#4d2d7c"/>
    </clipPath>
  </defs>
  <g id="Group_21028" data-name="Group 21028" clip-path="url(#clip-path)">
    <path id="Path_17789" data-name="Path 17789" d="M13.629,35.347a.883.883,0,0,1-.553-.793l.557-4.769c.031-.145-.369-.549-.467-.574-.125-.032-.388.146-.555.181A2.141,2.141,0,0,1,10.218,28.3c-.26-.376-1.706-2.918-1.879-2.951-2.327.819-5.248.8-6.436,3.346-.8,1.723-.264,3.993-.428,5.855a.736.736,0,0,1-1.431.058c.1-2.388-.474-4.888.8-7.04,1.669-2.815,4.805-2.829,7.605-3.786l2.54-1.568a17.734,17.734,0,0,0,0-2.354c-.026-.086-.673-.808-.8-.994a12.964,12.964,0,0,1-2.014-6.34c-.028-.29.036-.591-.017-.88-.057-.313-.264-.384-.411-.624a3.207,3.207,0,0,1-.262-1.877A11.072,11.072,0,0,0,7.655,8c-.089-.483-.837-1.48-1.019-2.077a2.155,2.155,0,0,1,.939-2.485C9.9,2.463,12.21,1.238,14.549.328A2.419,2.419,0,0,1,16.8.238c2.346.857,4.687,2.211,7.035,3.113A2.207,2.207,0,0,1,24.9,5.921c-.169.6-.929,1.577-1.02,2.075a9.349,9.349,0,0,0,.168,1.08,3.309,3.309,0,0,1-.314,2.032c-.067.108-.2.175-.267.286-.194.343-.074.76-.11,1.133A12.935,12.935,0,0,1,21.417,18.8c-.134.192-.851,1-.87,1.063a17.7,17.7,0,0,0,0,2.354l2.6,1.581c2.81.941,5.868.968,7.549,3.772,1.285,2.143.7,4.657.8,7.04a.736.736,0,0,1-1.437-.122c-.218-1.842.392-3.974-.4-5.746-1.154-2.582-4.211-2.628-6.565-3.4-.62.98-1.2,2.2-1.882,3.125a2.137,2.137,0,0,1-2.283.926c-.149-.034-.537-.242-.57-.24a2.8,2.8,0,0,0-.412.4.79.79,0,0,0-.036.377c.057,1.517.443,3.168.541,4.7a.877.877,0,0,1-.541.723h-.483a1.145,1.145,0,0,1-.468-.6l-.43-4.024a1.926,1.926,0,0,1-1.517,0l-.431,3.954c-.073.375-.233.484-.536.672ZM23.338,4.783a1.52,1.52,0,0,0-.322-.2c-2.154-.859-4.224-1.942-6.372-2.81-.5-.2-.713-.406-1.268-.208-2.3.821-4.627,2.206-6.941,3.068-1,.624.211,1.8.478,2.54l13.659,0,.108-.048c.151-.633,1.232-1.752.659-2.35M9.107,8.626c-.148,0-.2,1.241-.176,1.419a.4.4,0,0,0,.316.374l12.911.006c.563.018.474-.665.444-1.074a1.658,1.658,0,0,0-.172-.726Zm12.8,3.245c-1.036.876-1.936,2.19-3.275,2.627a18.281,18.281,0,0,1-4.7.207,4.2,4.2,0,0,1-2.273-.9c-.7-.568-1.345-1.313-2-1.931a10.426,10.426,0,0,0,2.108,6.661,14.574,14.574,0,0,0,2.525,2.239,5.78,5.78,0,0,0,3.087-.074A13.884,13.884,0,0,0,19.7,18.6a10.843,10.843,0,0,0,2.211-6.73m-2.208,0h-7.87a3.538,3.538,0,0,0,1.722,1.281,17.2,17.2,0,0,0,4.422,0,3.713,3.713,0,0,0,1.62-1.072c.068-.066.13-.09.1-.206m-.621,9.391a8.692,8.692,0,0,0-.807.608,5.593,5.593,0,0,1-5.015,0c-.268-.172-.5-.5-.8-.61v1c1.111,1.066,2.209,2.179,3.338,3.206l3.289-3.206Zm-7.477,2.288-1.825,1.2,1.778,2.9a.707.707,0,0,0,.72.309l2.316-1.551Zm10.169,1.1-1.889-1.1-2.942,2.859,2.211,1.516a.7.7,0,0,0,.855-.312,25.019,25.019,0,0,0,1.613-2.6c.037-.066.191-.312.152-.365M17.08,28.236l-1.288-.818-1.336.852c.268.334.9,1.153,1.341,1.134.277-.012,1.053-.759,1.216-1,.04-.058.094-.072.067-.173" transform="translate(0 0)" fill="#4d2d7c"/>
  </g>
</svg>
