<svg xmlns="http://www.w3.org/2000/svg" xmlns:xlink="http://www.w3.org/1999/xlink" width="100" height="100" viewBox="0 0 100 100">
  <defs>
    <clipPath id="clip-path">
      <rect id="Rectangle_4080" data-name="Rectangle 4080" width="52" height="42.704" fill="#4d2d7f"/>
    </clipPath>
  </defs>
  <g id="Group_21443" data-name="Group 21443" transform="translate(-229.5 -2310.219)">
    <circle id="Ellipse_128" data-name="Ellipse 128" cx="50" cy="50" r="50" transform="translate(229.5 2310.219)" fill="#f6f6f9"/>
    <g id="Group_21349" data-name="Group 21349" transform="translate(250 2338.867)">
      <g id="Group_20745" data-name="Group 20745" clip-path="url(#clip-path)">
        <path id="Path_14982" data-name="Path 14982" d="M52,8.64a3.154,3.154,0,0,1-.378.465.921.921,0,0,1-1.043.151,1,1,0,0,1-.612-.97c0-1.119,0-2.237,0-3.355,0-.91-.356-1.271-1.256-1.272-3.289,0-6.578.009-9.867-.012-.45,0-.518.15-.516.548.015,3.118.008,6.236.008,9.354,0,.169.005.34-.01.508a1,1,0,0,1-.683.921.969.969,0,0,1-1.071-.26c-.642-.629-1.282-1.259-1.9-1.908-.214-.224-.342-.238-.563-.005-.583.615-1.189,1.208-1.794,1.8a1.051,1.051,0,0,1-1.715,0c-.6-.594-1.21-1.188-1.793-1.8-.221-.233-.351-.219-.564.006-.5.53-1.028,1.033-1.541,1.551-.409.413-.8.879-1.48.6s-.651-.871-.65-1.459c0-3.084-.011-6.169.014-9.253,0-.5-.139-.606-.619-.6-3.238.022-6.476.011-9.714.012-.973,0-1.309.34-1.31,1.319,0,2.05.006,4.1-.007,6.151a.954.954,0,0,0,.312.754q2.081,2.053,4.135,4.135a.99.99,0,0,0,.759.313,27.186,27.186,0,0,1,5.07.221,12.3,12.3,0,0,1,4.859,2.091c1.289.935,2.564,1.891,3.833,2.852a3.3,3.3,0,0,1-1.842,5.979c-.048,0-.1.013-.155.022,0,.228.192.311.312.433.977.988,1.969,1.962,2.944,2.953a2.912,2.912,0,0,1-.487,4.693.338.338,0,0,0-.164.482,2.927,2.927,0,0,1-3.718,3.753c-.254-.081-.391-.089-.52.173a4.615,4.615,0,0,1-.44.62c.16.122.334.062.492.063q10.147.006,20.293,0c1.03,0,1.352-.33,1.352-1.38q0-11.185,0-22.369c0-.17-.009-.34.007-.508a.979.979,0,0,1,.752-.919.961.961,0,0,1,1.076.385c.071.092.133.19.2.286v24A3.348,3.348,0,0,1,49.457,42.7H13.446c-2.019-.763-2.543-1.533-2.543-3.736q0-2.745,0-5.491a.955.955,0,0,0-.167-.616A10.427,10.427,0,0,1,8.674,26.2a1.041,1.041,0,0,0-.35-.841Q4.427,21.49.551,17.6a4.892,4.892,0,0,1-.386-.4,1.308,1.308,0,0,1,.06-1.369,1.013,1.013,0,0,1,1.345-.062,3.585,3.585,0,0,1,.333.313c1.2,1.2,2.408,2.386,3.59,3.6.281.289.424.332.734.017q2.779-2.83,5.609-5.61c.3-.295.3-.446,0-.747Q6.174,7.711.537,2.057A4.929,4.929,0,0,1,.185,1.69,1.318,1.318,0,0,1,.2.319.991.991,0,0,1,1.581.241a3.7,3.7,0,0,1,.333.313q4.263,4.259,8.525,8.518c.125.125.26.239.464.425,0-1.553,0-3,0-4.456a3.091,3.091,0,0,1,3.434-3.418H45.363c1.2,0,2.408-.011,3.611,0a3.038,3.038,0,0,1,2.877,2.11c.048.143.1.285.15.428Zm-41.3,17.5a8.737,8.737,0,0,0,2.689,6.678c2.46,2.43,4.894,4.886,7.342,7.329a2.447,2.447,0,0,0,.458.4.884.884,0,0,0,1.331-.783,1.017,1.017,0,0,0-.376-.745q-1.371-1.362-2.734-2.731a1.024,1.024,0,0,1-.317-1.106.986.986,0,0,1,.758-.682,1.129,1.129,0,0,1,1.08.426q2.009,2.018,4.027,4.027c.494.492,1.032.552,1.426.168.411-.4.366-.915-.138-1.419q-1.938-1.945-3.883-3.884a4.113,4.113,0,0,1-.414-.447,1.016,1.016,0,0,1,.064-1.265,1,1,0,0,1,1.295-.168,2.458,2.458,0,0,1,.382.333q2.664,2.658,5.325,5.318A.91.91,0,1,0,30.29,36.31c-.082-.086-.168-.168-.252-.252q-2.555-2.551-5.112-5.1a1.163,1.163,0,0,1-.455-1.021.964.964,0,0,1,.673-.821,1.032,1.032,0,0,1,1.113.3q1.994,2,4,3.987c.1.1.187.2.289.286A.895.895,0,1,0,31.8,32.411c-.8-.827-1.625-1.635-2.44-2.45q-2.625-2.625-5.252-5.247a1.264,1.264,0,0,1-.452-1.225,1.175,1.175,0,0,1,1.848-.695c1.235.773,2.451,1.575,3.678,2.36a1.236,1.236,0,0,0,1.83-.26,1.267,1.267,0,0,0-.394-1.818c-1.232-.927-2.465-1.853-3.71-2.763a10.239,10.239,0,0,0-3.87-1.721,27.516,27.516,0,0,0-5.068-.241.987.987,0,0,0-.8.339c-1.887,1.9-3.768,3.808-5.689,5.673-.572.555-.991,1.1-.781,1.774m16.077-14.6c.3-.343.579-.7.9-1.02a1.044,1.044,0,0,1,1.71,0c.593.581,1.19,1.159,1.756,1.766.252.27.4.239.639-.012.534-.567,1.1-1.108,1.648-1.658.715-.712,1.188-.715,1.894-.015l.914.906a1.272,1.272,0,0,0,.061-.225c0-2.422,0-4.845.012-7.267,0-.363-.184-.359-.444-.358-2.932,0-5.864.011-8.8-.007-.4,0-.475.124-.473.489.015,2.3.007,4.608.01,6.912a.52.52,0,0,0,.172.492M9.413,23.549c.072-.06.138-.108.2-.166q2.963-2.96,5.928-5.917c.189-.188.131-.293-.027-.447q-.836-.816-1.651-1.651c-.164-.169-.268-.185-.447,0q-2.934,2.953-5.886,5.887c-.166.165-.195.267-.009.445.574.55,1.128,1.121,1.692,1.682.059.059.127.107.205.172M12.938,35.3c0,1.426,0,2.788,0,4.15,0,.835.375,1.213,1.2,1.216q1.9.007,3.8,0c.105,0,.239.062.307-.063l-5.316-5.3" transform="translate(0 0)" fill="#4d2d7f"/>
        <path id="Path_14983" data-name="Path 14983" d="M492.334,113.03c-.057.08-.112.162-.17.241a.962.962,0,0,1-1.143.414,1,1,0,0,1,0-1.923.966.966,0,0,1,1.143.416c.058.079.113.161.169.242Z" transform="translate(-440.334 -100.322)" fill="#4d2d7f"/>
        <path id="Path_14984" data-name="Path 14984" d="M376.75,300.345c-1.049,0-2.1.005-3.146,0a1.018,1.018,0,0,1-1.124-.981,1.033,1.033,0,0,1,1.121-1.047q3.146-.015,6.292,0a1.036,1.036,0,0,1,1.125,1.044,1.016,1.016,0,0,1-1.122.983c-1.048.007-2.1,0-3.146,0" transform="translate(-334.514 -267.903)" fill="#4d2d7f"/>
        <path id="Path_14985" data-name="Path 14985" d="M396.444,341.474c-.71,0-1.421.011-2.13,0a1.011,1.011,0,1,1-.042-2.018q2.155-.035,4.311,0a1.011,1.011,0,1,1-.009,2.019c-.71.015-1.42,0-2.13,0" transform="translate(-353.149 -304.839)" fill="#4d2d7f"/>
        <path id="Path_14986" data-name="Path 14986" d="M354.321,341.623a.982.982,0,0,1-1.016-.976,1,1,0,0,1,.964-1.037,1.027,1.027,0,0,1,1.055,1.009,1.01,1.01,0,0,1-1,1" transform="translate(-317.294 -304.995)" fill="#4d2d7f"/>
      </g>
    </g>
  </g>
</svg>
