<svg xmlns="http://www.w3.org/2000/svg" width="169.974" height="169.974" viewBox="0 0 169.974 169.974">
  <g id="Group_21905" data-name="Group 21905" transform="translate(0.063 0.063)">
    <g id="Group_21906" data-name="Group 21906" transform="translate(-0.063 -0.063)">
      <path id="Path_18605" data-name="Path 18605" d="M299.895,232.393a51.667,51.667,0,1,0,4.048,20.047,51.3,51.3,0,0,0-4.048-20.047m-54,51.594-13.681-11.743-13.175-11.309,11.709-13.641,12.11,10.393,28.466-36.794L285.839,231.5Z" transform="translate(-167.454 -167.454)" fill="#06c35d"/>
      <path id="Path_18606" data-name="Path 18606" d="M169.974,85.026l-9.492-15.018,3.041-17.5-14.5-10.257-3.917-17.323L127.78,21.014,117.547,6.492,100.041,9.486,85.026,0,70.008,9.492l-17.5-3.041-10.257,14.5L24.925,24.868,21.014,42.193,6.492,52.426,9.487,69.932,0,84.947,9.492,99.965l-3.041,17.5,14.5,10.257,3.917,17.323,17.325,3.911,10.233,14.522,17.506-2.994,15.015,9.487,15.018-9.492,17.5,3.041,10.257-14.5,17.323-3.917,3.912-17.325,14.522-10.233-2.994-17.506ZM84.987,145.419a60.432,60.432,0,1,1,60.432-60.432,60.432,60.432,0,0,1-60.432,60.432" fill="#06c35d"/>
    </g>
  </g>
</svg>
