<svg id="Group_21019" data-name="Group 21019" xmlns="http://www.w3.org/2000/svg" xmlns:xlink="http://www.w3.org/1999/xlink" width="37.29" height="29" viewBox="0 0 37.29 29">
  <defs>
    <clipPath id="clip-path">
      <rect id="Rectangle_4298" data-name="Rectangle 4298" width="37.29" height="29" fill="#4d2d7c"/>
    </clipPath>
  </defs>
  <g id="Group_21000" data-name="Group 21000" clip-path="url(#clip-path)">
    <path id="Path_17776" data-name="Path 17776" d="M26.583,0a16.7,16.7,0,0,1,1.634.416c3.846,1.415,4.268,5.163,5.312,8.615h1.506c.658-2-1.215-.721-1.61-1.694C32.77,5.728,35.55,5.6,36.457,6.817A3.255,3.255,0,0,1,36.669,9.7c-.485,1.014-1.446,1.17-2.471,1.209,1.537,1.622,2.854,3.075,3.015,5.433a34.065,34.065,0,0,1-.131,6.231,3.672,3.672,0,0,1-1.365,1.73c.053,1.683.13,3.994-1.9,4.539a23.283,23.283,0,0,1-4.347.089,2.863,2.863,0,0,1-2.217-2.216V24.671H10.015v2.049a2.921,2.921,0,0,1-2,2.179,24.921,24.921,0,0,1-4.066.04c-2.4-.207-2.513-2.761-2.4-4.631A3.479,3.479,0,0,1,.057,22.162c.134-1.966-.179-4.167,0-6.1a7.633,7.633,0,0,1,.416-1.633,12.237,12.237,0,0,1,2.6-3.511C2.044,10.874,1.082,10.719.6,9.7A3.255,3.255,0,0,1,.81,6.817C1.717,5.6,4.5,5.728,3.843,7.339c-.4.973-2.268-.31-1.61,1.694H3.739C4.578,6.5,4.9,3.409,7.047,1.592A7.443,7.443,0,0,1,10.684,0Zm8.87,19.234V16.266c0-2.081-2.286-3.244-2.97-4.725-1.7-3.675-1.14-9.418-6.524-9.787-4.788.253-9.9-.324-14.651,0-5.222.357-4.972,6.223-6.548,9.93-.8,1.038-2.862,2.864-2.862,4.248v3.3H6.207c.252,0,.721-.545.776-.814A8.223,8.223,0,0,0,7,16.85c-.172-1.434-2.4-.841-3.393-.958a.888.888,0,0,1,.084-1.76,12.9,12.9,0,0,1,3.073.11c2.52.69,2.8,4.825.847,6.233a4.351,4.351,0,0,1-1.073.516H1.9a6.53,6.53,0,0,0,.037,1.175,1.867,1.867,0,0,0,.674.664H12.19v-3.3c0-.2.614-.7.879-.627,3.564.236,7.533-.314,11.049,0a1.454,1.454,0,0,1,.706.214,1.946,1.946,0,0,1,.336.5v3.22h9.5a3.164,3.164,0,0,0,.464-.289c.419-.4.327-1.029.331-1.551H30.809c-1.037,0-2.2-1.475-2.3-2.468-.387-3.821,1.465-4.721,4.981-4.393a.885.885,0,0,1,.166,1.761c-1.032.123-3.208-.493-3.393,1.042A6.517,6.517,0,0,0,30.3,18.4c.072.311.532.83.843.83ZM23.319,20.657H13.948v2.174h9.372ZM8.257,24.671H3.4v1.965c0,.216.587.506.8.536a20.514,20.514,0,0,0,3.174.009.976.976,0,0,0,.877-.88Zm25.606,0H29.01V26.3a.976.976,0,0,0,.877.88,20.514,20.514,0,0,0,3.174-.009c.277-.039.8-.316.8-.62Z" transform="translate(0 -0.001)" fill="#4d2d7c"/>
    <path id="Path_17777" data-name="Path 17777" d="M84.249,107.688l21.655-.021a.891.891,0,0,1,.169,1.762H84.226a.887.887,0,0,1,.023-1.741" transform="translate(-76.516 -98.637)" fill="#4d2d7c"/>
    <path id="Path_17778" data-name="Path 17778" d="M125.033,168.512,140,168.493a.892.892,0,0,1,.27,1.695c-5.1.105-10.257.105-15.354,0a.9.9,0,0,1,.122-1.675" transform="translate(-113.955 -154.362)" fill="#4d2d7c"/>
  </g>
</svg>
