<svg xmlns="http://www.w3.org/2000/svg" xmlns:xlink="http://www.w3.org/1999/xlink" width="98" height="98" viewBox="0 0 98 98">
  <defs>
    <clipPath id="clip-path">
      <rect id="Rectangle_4342" data-name="Rectangle 4342" width="41.347" height="46.341" fill="#4d2d7c" stroke="#4d2d7c" stroke-width="0.5"/>
    </clipPath>
  </defs>
  <g id="Group_21084" data-name="Group 21084" transform="translate(-589.407 -1321)">
    <g id="Ellipse_110" data-name="Ellipse 110" transform="translate(589.407 1321)" fill="#f9f5ff" stroke="#4d2d7c" stroke-width="2">
      <circle cx="49" cy="49" r="49" stroke="none"/>
      <circle cx="49" cy="49" r="48" fill="none"/>
    </g>
    <g id="Group_21074" data-name="Group 21074" transform="translate(617.733 1346.83)" clip-path="url(#clip-path)">
      <path id="Path_17849" data-name="Path 17849" d="M17.868,46.341a1.157,1.157,0,0,1-.725-1.04l.73-6.252c.04-.19-.484-.72-.612-.753-.164-.042-.508.191-.728.237A2.807,2.807,0,0,1,13.4,37.1c-.341-.492-2.237-3.825-2.463-3.869-3.05,1.074-6.88,1.046-8.437,4.387-1.053,2.259-.346,5.235-.561,7.677a.965.965,0,0,1-1.876.077c.133-3.13-.621-6.409,1.052-9.23,2.188-3.69,6.3-3.709,9.971-4.963l3.33-2.055a23.251,23.251,0,0,0,0-3.086c-.034-.113-.882-1.06-1.051-1.3a17,17,0,0,1-2.64-8.312c-.036-.381.047-.775-.022-1.154-.075-.41-.346-.5-.539-.819a4.2,4.2,0,0,1-.344-2.461,14.516,14.516,0,0,0,.221-1.505C9.919,9.849,8.938,8.542,8.7,7.76A2.825,2.825,0,0,1,9.931,4.5C12.976,3.229,16.008,1.623,19.074.43A3.171,3.171,0,0,1,22.03.312c3.075,1.124,6.144,2.9,9.223,4.082a2.893,2.893,0,0,1,1.4,3.369c-.222.785-1.218,2.068-1.337,2.721a12.258,12.258,0,0,0,.221,1.415,4.339,4.339,0,0,1-.411,2.664c-.088.142-.267.229-.35.375-.254.45-.1,1-.144,1.486a16.958,16.958,0,0,1-2.55,8.222c-.176.252-1.116,1.307-1.141,1.393a23.2,23.2,0,0,0,0,3.086l3.4,2.073c3.684,1.234,7.693,1.27,9.9,4.946,1.685,2.81.912,6.105,1.052,9.23a.965.965,0,0,1-1.884-.16c-.286-2.414.515-5.21-.524-7.533-1.513-3.385-5.521-3.445-8.607-4.457-.812,1.285-1.574,2.889-2.468,4.1a2.8,2.8,0,0,1-2.993,1.214c-.195-.044-.7-.318-.748-.314a3.674,3.674,0,0,0-.54.52,1.035,1.035,0,0,0-.048.494c.074,1.989.581,4.154.709,6.16a1.149,1.149,0,0,1-.709.948h-.633a1.5,1.5,0,0,1-.613-.79l-.564-5.275a2.525,2.525,0,0,1-1.989,0l-.565,5.184c-.1.492-.305.634-.7.881ZM30.6,6.271a1.993,1.993,0,0,0-.423-.256c-2.824-1.126-5.538-2.546-8.354-3.684-.66-.267-.935-.532-1.663-.272-3.021,1.076-6.067,2.892-9.1,4.023-1.308.819.276,2.359.626,3.33l17.908,0,.142-.063c.2-.83,1.616-2.3.864-3.081M11.94,11.309c-.195,0-.261,1.627-.231,1.861a.523.523,0,0,0,.414.491l16.927.008c.739.024.622-.872.582-1.408a2.173,2.173,0,0,0-.226-.952Zm16.787,4.255c-1.358,1.149-2.538,2.871-4.294,3.443a23.968,23.968,0,0,1-6.162.271,5.507,5.507,0,0,1-2.98-1.183c-.917-.744-1.763-1.721-2.628-2.532A13.669,13.669,0,0,0,15.427,24.3a19.107,19.107,0,0,0,3.31,2.935,7.577,7.577,0,0,0,4.047-.1,18.2,18.2,0,0,0,3.045-2.748c2.1-2.467,2.758-5.652,2.9-8.823m-2.9,0H15.515a4.638,4.638,0,0,0,2.258,1.679,22.551,22.551,0,0,0,5.8,0,4.868,4.868,0,0,0,2.125-1.405c.089-.087.17-.118.138-.27m-.815,12.311a11.4,11.4,0,0,0-1.058.8,7.332,7.332,0,0,1-6.575,0c-.352-.225-.655-.656-1.055-.8v1.313c1.456,1.4,2.9,2.857,4.377,4.2l4.311-4.2Zm-9.8,3-2.393,1.57,2.331,3.8a.926.926,0,0,0,.945.4l3.036-2.034Zm13.332,1.438-2.476-1.441-3.857,3.748,2.9,1.987a.916.916,0,0,0,1.121-.409,32.8,32.8,0,0,0,2.115-3.407c.048-.087.25-.409.2-.478m-6.155,4.707L20.7,35.946l-1.751,1.118c.351.438,1.186,1.511,1.758,1.486.364-.016,1.381-1,1.594-1.3.052-.076.124-.095.088-.227" transform="translate(0 0)" fill="#4d2d7c" stroke="#4d2d7c" stroke-width="0.5"/>
    </g>
  </g>
</svg>
