<svg xmlns="http://www.w3.org/2000/svg" xmlns:xlink="http://www.w3.org/1999/xlink" width="100" height="100" viewBox="0 0 100 100">
  <defs>
    <clipPath id="clip-path">
      <rect id="Rectangle_4082" data-name="Rectangle 4082" width="52" height="40.753" fill="#4d2d7c"/>
    </clipPath>
  </defs>
  <g id="Group_21440" data-name="Group 21440" transform="translate(-229 -2310.219)">
    <circle id="Ellipse_125" data-name="Ellipse 125" cx="50" cy="50" r="50" transform="translate(229 2310.219)" fill="#f6f6f9"/>
    <g id="Group_21350" data-name="Group 21350" transform="translate(253 2339.842)">
      <g id="Group_20746" data-name="Group 20746" clip-path="url(#clip-path)">
        <path id="Path_14987" data-name="Path 14987" d="M0,31.25V20.834A5.139,5.139,0,0,1,2.1,17.7c.342-.249.653-.542.972-.821,1.084-.946,2.184-1.874,3.288-2.992-1.059,0-2,.017-2.934,0A2.53,2.53,0,0,1,.95,11.4,2.471,2.471,0,0,1,3.311,8.884a24.1,24.1,0,0,1,3.7.016,2.89,2.89,0,0,1,1.168.3c.405.246.5.051.631-.282.756-1.956,1.527-3.906,2.292-5.858A4.608,4.608,0,0,1,14.488.111,1.542,1.542,0,0,0,14.741,0H37.259c.046.032.087.083.137.093a4.679,4.679,0,0,1,3.56,3.141c.689,1.8,1.4,3.585,2.1,5.377.281.717.281.715,1.024.473a2.986,2.986,0,0,1,.448-.114,17.449,17.449,0,0,1,4.508-.033,2.4,2.4,0,0,1,1.985,2.321,2.539,2.539,0,0,1-1.76,2.514,3.854,3.854,0,0,1-1.205.118c-.776,0-1.551,0-2.453,0,1.417,1.377,2.767,2.591,4.185,3.721A5.164,5.164,0,0,1,52,21.181v9.954a5.961,5.961,0,0,1-.7,1.817,1.389,1.389,0,0,0-.246.863c.012,1.369.019,2.738,0,4.107a2.751,2.751,0,0,1-2.668,2.8q-2.9.058-5.8,0a2.735,2.735,0,0,1-2.661-2.685c-.019-.713-.043-1.429.006-2.139.039-.564-.1-.737-.711-.735Q26,35.2,12.77,35.182a3.1,3.1,0,0,1-.348,0c-.286-.032-.362.1-.357.367.013.752.009,1.5,0,2.256A2.8,2.8,0,0,1,9.11,40.736q-2.611.008-5.221,0A2.791,2.791,0,0,1,.93,37.807c-.006-1.35,0-2.7,0-4.049a.941.941,0,0,0-.067-.5,6.9,6.9,0,0,1-.859-2M26.041,14.815H8.574a.887.887,0,0,0-.737.219c-1.572,1.6-3.292,3.038-5.006,4.482a2.534,2.534,0,0,0-.973,2.012c0,3.009-.012,6.018,0,9.027a2.731,2.731,0,0,0,2.7,2.766c2.727.032,5.455.006,8.182.02.32,0,.428-.135.522-.4.29-.837.616-1.661.91-2.5a1.1,1.1,0,0,1,1.173-.817q10.765.016,21.529,0A1.048,1.048,0,0,1,38,30.417c.27.823.59,1.631.835,2.461a.555.555,0,0,0,.651.463c2.534-.014,5.068,0,7.6-.009A2.814,2.814,0,0,0,50.134,30.3c0-2.855-.006-5.709.005-8.564a2.836,2.836,0,0,0-1.084-2.317c-1.63-1.363-3.26-2.728-4.754-4.242a1.153,1.153,0,0,0-.908-.371q-8.675.015-17.351.007m16.782-1.871c-.077-.2-.129-.34-.185-.479Q40.915,8.147,39.19,3.829a2.8,2.8,0,0,0-2.943-1.972q-10.237,0-20.474,0a2.832,2.832,0,0,0-3,2.052Q11.5,7.133,10.223,10.355c-.34.854-.7,1.7-1.062,2.589Zm-5.8,20.37c-.128-.393-.275-.75-.357-1.12-.121-.549-.382-.741-.986-.731-2.666.044-5.333.019-8,.019q-5.681,0-11.363,0c-.211,0-.49-.116-.6.187-.2.533-.387,1.071-.592,1.64ZM49.2,34.837a10.2,10.2,0,0,1-3.2.357c-1.256,0-2.512,0-3.768-.023-.351-.007-.471.092-.458.454.028.751,0,1.5.012,2.254a.9.9,0,0,0,.955,1c1.836.016,3.671.013,5.507,0a.857.857,0,0,0,.937-.838c.047-1.051.014-2.106.014-3.2M6.442,38.885c.909,0,1.818.01,2.726,0a.941.941,0,0,0,1.042-1.043c.013-.732-.021-1.466.013-2.2.018-.4-.143-.471-.5-.467-1.431.017-2.862,0-4.293.01a6.322,6.322,0,0,1-2.345-.274c-.336-.129-.3.076-.3.273,0,.868-.006,1.735,0,2.6.007.754.344,1.09,1.1,1.1.851.008,1.7,0,2.552,0M46.594,12.037c.6,0,1.2,0,1.8,0,.457,0,.777-.2.783-.659s-.32-.666-.774-.665c-1.006,0-2.011,0-3.016.006a1.738,1.738,0,0,0-.624.1c-.245.1-.631.148-.563.521s.19.774.774.705a14.028,14.028,0,0,1,1.623-.014m-41.241,0c.58,0,1.164-.043,1.739.012.544.053.588-.336.689-.664.117-.382-.248-.427-.471-.522a1.821,1.821,0,0,0-.673-.14c-1.024-.015-2.049-.009-3.074-.007-.456,0-.767.214-.752.684.014.432.313.637.745.636h1.8" fill="#4d2d7c"/>
        <path id="Path_14988" data-name="Path 14988" d="M144.447,175.478q4.556,0,9.112,0c.463,0,.9.03,1.155.488a1.077,1.077,0,0,1-.2,1.228c-.714,1.054-1.428,2.109-2.119,3.178a1.342,1.342,0,0,1-1.246.673q-6.761-.022-13.522,0a1.34,1.34,0,0,1-1.243-.677c-.691-1.07-1.405-2.124-2.121-3.178a1.079,1.079,0,0,1-.2-1.229,1.093,1.093,0,0,1,1.1-.483q4.643.009,9.285,0m7.71,1.883H136.613c.4.6.767,1.14,1.123,1.682.107.162.262.137.412.137h12.471c.174,0,.333.005.45-.179.338-.532.7-1.052,1.089-1.641" transform="translate(-118.393 -155.107)" fill="#4d2d7c"/>
        <path id="Path_14989" data-name="Path 14989" d="M36.576,175.457c1.16,0,2.32.012,3.48-.006a1.2,1.2,0,0,1,1.108.593c.741,1.128,1.5,2.246,2.251,3.365a1,1,0,0,1,.145,1.084,1.028,1.028,0,0,1-1.02.522c-1.991-.008-3.983.016-5.974-.011A4.639,4.639,0,0,1,32,176.889c-.127-1.034.222-1.43,1.266-1.431q1.653,0,3.306,0M41,179.147c-.407-.607-.754-1.111-1.085-1.625a.453.453,0,0,0-.434-.215c-1.7,0-3.4.009-5.094,0-.4,0-.353.16-.205.41a2.609,2.609,0,0,0,2.186,1.416c1.5.059,3,.016,4.633.016" transform="translate(-28.268 -155.086)" fill="#4d2d7c"/>
        <path id="Path_14990" data-name="Path 14990" d="M322.373,175.468c1.16,0,2.32-.006,3.48,0a.974.974,0,0,1,1.1,1.154,4.619,4.619,0,0,1-4.422,4.382c-2.067.053-4.137.026-6.206.013a.936.936,0,0,1-.822-1.554c.756-1.164,1.541-2.31,2.31-3.466a1.123,1.123,0,0,1,1.023-.535c1.179.013,2.359,0,3.538,0m-4.444,3.7c1.589,0,3.038.026,4.485-.009a2.7,2.7,0,0,0,2.323-1.4c.205-.335.15-.449-.268-.445-1.642.018-3.285.007-4.927.008-.189,0-.372-.026-.506.185-.336.532-.7,1.048-1.108,1.66" transform="translate(-278.684 -155.097)" fill="#4d2d7c"/>
      </g>
    </g>
  </g>
</svg>
