<svg xmlns="http://www.w3.org/2000/svg" xmlns:xlink="http://www.w3.org/1999/xlink" width="86" height="86" viewBox="0 0 86 86">
  <defs>
    <clipPath id="clip-path">
      <rect id="Rectangle_5338" data-name="Rectangle 5338" width="58.326" height="33.334" fill="#4d2d7c"/>
    </clipPath>
  </defs>
  <g id="Group_21978" data-name="Group 21978" transform="translate(-9617 -6299)">
    <circle id="Ellipse_137" data-name="Ellipse 137" cx="43" cy="43" r="43" transform="translate(9617 6299)" fill="#fff"/>
    <g id="Group_21956" data-name="Group 21956" transform="translate(9630.837 6325.333)">
      <g id="Group_21956-2" data-name="Group 21956" clip-path="url(#clip-path)">
        <path id="Path_18621" data-name="Path 18621" d="M58.326,20.71v5.905c-.143.239-.569.795-.853.795h-4.72a5.675,5.675,0,0,1-4.89,5.905H46.385a5.683,5.683,0,0,1-4.89-5.906l-7.31-.026a1.139,1.139,0,0,1,.2-2.248l7.6,0a5.691,5.691,0,0,1,10.2,0h3.867V20.881c0-3.268-3.678-6.344-6.782-6.629-1.047-.1-4.357.218-4.992-.239L38.6,5.945a11.435,11.435,0,0,0-7.39-3.524,89.012,89.012,0,0,0-10.132,0c-7.066.473-9.266,6.484-12.9,11.418-2.72,1.054-5.01,2.708-5.634,5.731a18.982,18.982,0,0,0-.159,4.6c.243,1.59,2.882.774,4.011.977a5.757,5.757,0,0,1,10.273-.022l7.6.015a1.144,1.144,0,0,1,.2,2.25l-7.312.023a5.791,5.791,0,0,1-4.89,5.906c-.473-.039-1.017.055-1.478,0a5.863,5.863,0,0,1-5-5.906C3.286,27.629.4,27.342.1,24.287-.444,18.842,1.222,14.064,6.63,12.074,10.452,6.468,13.281.639,20.961.15,24.243-.059,31.2-.174,34.215.666,40.162,2.323,42.2,7.4,45.59,11.908c1.822.143,3.546-.092,5.344.342a10.028,10.028,0,0,1,7.392,8.461m-47.34,3.55c-4.29.579-3.572,7.228.869,6.772,4.468-.459,3.742-7.394-.869-6.772m35.6,0c-4.663.668-3.113,8.137,1.617,6.611,3.845-1.241,2.571-7.211-1.617-6.611" transform="translate(0 0)" fill="#4d2d7c"/>
        <path id="Path_18622" data-name="Path 18622" d="M230.37,40.724a25.389,25.389,0,0,1,3.961-.028,9.462,9.462,0,0,1,4.639,1.727,25.662,25.662,0,0,1,4.6,5.965c.491.981.186,1.736-.939,1.857-3.808-.276-8.087.347-11.838,0-.944-.088-1.211-.517-1.3-1.425a47.628,47.628,0,0,1-.005-6.589c.048-.567.226-1.358.881-1.505m10.155,7.244c-1.125-1.679-2.172-3.6-4.131-4.449a10.3,10.3,0,0,0-1.84-.548h-2.673v5Z" transform="translate(-203.239 -36.002)" fill="#4d2d7c"/>
        <path id="Path_18623" data-name="Path 18623" d="M111.638,40.7c1.579-.149,3.046-.427,3.211,1.5a48.793,48.793,0,0,1,0,6.481c-.082.954-.3,1.439-1.308,1.533-3.239.3-7.017-.191-10.3-.058a1.128,1.128,0,0,1-.7-1.619,40.037,40.037,0,0,1,2.776-4.042,8.753,8.753,0,0,1,6.325-3.791m.819,2.237c-3.313-.034-5.192,2.413-6.71,5h6.71Z" transform="translate(-90.753 -35.968)" fill="#4d2d7c"/>
        <path id="Path_18624" data-name="Path 18624" d="M231.994,144.53c.752-.152,2.461-.15,2.641.832.289,1.574-1.458,1.546-2.556,1.416a1.139,1.139,0,0,1-.085-2.248" transform="translate(-204.747 -127.995)" fill="#4d2d7c"/>
        <path id="Path_18625" data-name="Path 18625" d="M248.33,220.624a1.143,1.143,0,0,1,.516,2.225,1.143,1.143,0,0,1-.516-2.225" transform="translate(-219.262 -195.461)" fill="#4d2d7c"/>
        <path id="Path_18626" data-name="Path 18626" d="M91.9,232.494a1.144,1.144,0,1,1,.419,2.246,1.144,1.144,0,0,1-.419-2.246" transform="translate(-80.687 -205.97)" fill="#4d2d7c"/>
        <path id="Path_18627" data-name="Path 18627" d="M404.773,232.641a1.132,1.132,0,1,1,.3,2.245,1.132,1.132,0,0,1-.3-2.245" transform="translate(-357.846 -206.116)" fill="#4d2d7c"/>
      </g>
    </g>
  </g>
</svg>
