<svg id="Group_21020" data-name="Group 21020" xmlns="http://www.w3.org/2000/svg" xmlns:xlink="http://www.w3.org/1999/xlink" width="33.545" height="33.521" viewBox="0 0 33.545 33.521">
  <defs>
    <clipPath id="clip-path">
      <rect id="Rectangle_4294" data-name="Rectangle 4294" width="33.545" height="33.522" fill="#4d2d7c"/>
    </clipPath>
  </defs>
  <g id="Group_20995" data-name="Group 20995" clip-path="url(#clip-path)">
    <path id="Path_17772" data-name="Path 17772" d="M18.241,0c.484.115.988.144,1.478.231A16.862,16.862,0,0,1,33.153,13.107l.371,2.176c-.051.957.069,1.982,0,2.931A16.984,16.984,0,0,1,20.417,33.127,16.8,16.8,0,0,1,.41,13.05,16.987,16.987,0,0,1,15.31,0ZM16.551,2.255A14.5,14.5,0,1,0,29.086,24.42,14.521,14.521,0,0,0,16.551,2.255" transform="translate(0 -0.001)" fill="#4d2d7c"/>
    <path id="Path_17773" data-name="Path 17773" d="M181.08,127.426c.031.863.106,1.978-1.041,2.07-1.227.1-1.261-1.212-1.231-2.084-1.8-.32-3.6-1.8-3.313-3.792a1.141,1.141,0,0,1,1.951-.567c.353.371.245.688.364,1.1.442,1.531,4.329,1.447,4.371-.338a1.688,1.688,0,0,0-1.11-1.666c-1.781-.9-3.9-.882-5.035-2.85-1.475-2.568-.022-5.182,2.773-5.7.024-.783-.085-1.911.971-2.029,1.345-.151,1.335,1.044,1.323,2.029,1.8.346,3.6,1.774,3.313,3.793a1.16,1.16,0,0,1-1.912.6c-.544-.517-.079-1.244-.92-1.8-.88-.584-3.52-.59-3.776.667-.449,2.209,2.469,2.42,3.939,3.077a4.14,4.14,0,0,1,2.674,4.443c-.171,1.711-1.809,2.713-3.34,3.046" transform="translate(-163.179 -103.76)" fill="#4d2d7c"/>
  </g>
</svg>
