<svg xmlns="http://www.w3.org/2000/svg" xmlns:xlink="http://www.w3.org/1999/xlink" width="100" height="100" viewBox="0 0 100 100">
  <defs>
    <clipPath id="clip-path">
      <rect id="Rectangle_4532" data-name="Rectangle 4532" width="69.922" height="28.174" fill="#4d2d7c"/>
    </clipPath>
  </defs>
  <g id="Group_21441" data-name="Group 21441" transform="translate(-230.5 -2310.219)">
    <circle id="Ellipse_126" data-name="Ellipse 126" cx="50" cy="50" r="50" transform="translate(230.5 2310.219)" fill="#f6f6f9"/>
    <g id="Group_21352" data-name="Group 21352" transform="translate(245.539 2346.133)">
      <g id="Group_21351" data-name="Group 21351" transform="translate(0 0)" clip-path="url(#clip-path)">
        <path id="Path_17970" data-name="Path 17970" d="M34.835,0c.755.193,1.545.188,2.32.335,4.778.9,9.009,4.928,13.2,7.2,5.034.447,10.262.675,15.048,2.51,1.947.747,3.48,1.619,4.157,3.73a29.472,29.472,0,0,1,.271,7.073,3.332,3.332,0,0,1-2.291,2.874c-.785.23-1.914.209-1.946-.848-.041-1.335,2.189-.911,2.189-1.9V15.207H65.54a1.167,1.167,0,0,1-1.03-1.022c-.052-1.279,1.228-1.008,2.119-1.014.118.016.082-.253.067-.27-.047-.056-1.123-.575-1.312-.662-4-1.842-10.54-2.456-14.953-2.6-13.743-.463-27.737.384-41.506-.026-3.609-1.729.627-5.224,1.262-7.572a5.214,5.214,0,0,0-3.335.679A38.014,38.014,0,0,0,2.725,8.24a4.637,4.637,0,0,0-.571,2.623c2.9-.389,3.02,2.579,0,2.036v5.363c0,.461.915,1.442,1.362,1.629a24.153,24.153,0,0,0,4.268.617,6.643,6.643,0,0,1,7.373-5.164,6.641,6.641,0,0,1,5.25,4.405c.185.626.146,1.449.285,1.889a.264.264,0,0,0,.2.2l29.121.019a.306.306,0,0,0,.322-.222c.115-.366.084-1.153.22-1.682C52.665,11.8,65.936,15.336,62.89,23.97c-2.007,5.69-10.246,5.536-12.207-.082l-30.4.024C18,30.244,8.9,29.267,7.791,22.661,4.666,22.114,1.056,22.4.112,18.6c.264-2.845-.353-6.33,0-9.1C.335,7.756,4.2,2.166,5.627,1.086A6.54,6.54,0,0,1,8.418,0Zm-16.2,2.037H12.707L9.507,7.6h9.123ZM30.477,7.6l-.885-5.567H20.877a1.375,1.375,0,0,0-.2.2V7.6Zm2.042,0H46.545L42.312,4.832a15.69,15.69,0,0,0-10.474-2.8ZM13.285,17.413c-5.061.79-4.335,8.975,1.049,8.8,6.064-.2,5.613-9.837-1.049-8.8m42.623,0c-5.081.735-4.461,8.978,1.046,8.794,5.891-.2,5.671-9.767-1.046-8.794" transform="translate(0 0)" fill="#4d2d7c"/>
        <path id="Path_17971" data-name="Path 17971" d="M61.806,46.578l23.535-.035c1.389.4.935,2-.415,2.043H62.459c-1.216-.075-1.775-1.284-.652-2.008" transform="translate(-38.176 -29.034)" fill="#4d2d7c"/>
        <path id="Path_17972" data-name="Path 17972" d="M35.434,53.079a1.022,1.022,0,0,1,1.159,1.436A15.61,15.61,0,0,1,34.7,56.433a1.022,1.022,0,0,1-1.478-1.338,12.519,12.519,0,0,1,2.207-2.015" transform="translate(-20.651 -33.096)" fill="#4d2d7c"/>
        <path id="Path_17973" data-name="Path 17973" d="M146.981,53.074a.98.98,0,0,1,.847.187,25.187,25.187,0,0,1,1.841,1.828,1.022,1.022,0,0,1-1.478,1.338,17.709,17.709,0,0,1-1.837-1.832,1.018,1.018,0,0,1,.627-1.521" transform="translate(-91.212 -33.09)" fill="#4d2d7c"/>
      </g>
    </g>
  </g>
</svg>
