<svg id="Group_21022" data-name="Group 21022" xmlns="http://www.w3.org/2000/svg" xmlns:xlink="http://www.w3.org/1999/xlink" width="25.235" height="28.279" viewBox="0 0 25.235 28.279">
  <defs>
    <clipPath id="clip-path">
      <rect id="Rectangle_4314" data-name="Rectangle 4314" width="25.235" height="28.279" fill="#4d2d7c"/>
    </clipPath>
  </defs>
  <g id="Group_21021" data-name="Group 21021" clip-path="url(#clip-path)">
    <path id="Path_17785" data-name="Path 17785" d="M12.874,0c.587.308,1.089.743,1.646,1.1a20.678,20.678,0,0,0,8.362,3.247c.847.112,2.108-.161,2.3.985.019,6.635.765,12.581-3.818,17.957-1.8,2.117-6.1,5.1-8.963,4.988-2.814-.114-6.9-3.449-8.607-5.59C-.436,17.381-.056,11.8.065,5.331c.187-1.145,1.449-.874,2.3-.985A22.472,22.472,0,0,0,12.37,0ZM23.159,6.374A22.212,22.212,0,0,1,12.644,2.284c-.669.36-1.278.815-1.935,1.2A20.651,20.651,0,0,1,2.085,6.374c.121,2.546-.219,5.27.135,7.785a15.235,15.235,0,0,0,8.845,11.664c1.8.769,2.744.275,4.418-.525a13.871,13.871,0,0,0,7.677-11.758c.121-2.35-.1-4.8,0-7.166" transform="translate(0)" fill="#4d2d7c"/>
    <path id="Path_17786" data-name="Path 17786" d="M38.3,42.4a1.014,1.014,0,0,1,.925,1.561L32.7,50.5a.979.979,0,0,1-1.169.031l-3.787-3.785a1.01,1.01,0,0,1,1.486-1.36L32.1,48.256l5.582-5.585A1.258,1.258,0,0,1,38.3,42.4" transform="translate(-20.836 -32.102)" fill="#4d2d7c"/>
  </g>
</svg>
