<svg xmlns="http://www.w3.org/2000/svg" xmlns:xlink="http://www.w3.org/1999/xlink" width="65.925" height="64.501" viewBox="0 0 65.925 64.501">
  <defs>
    <clipPath id="clip-path">
      <rect id="Rectangle_4500" data-name="Rectangle 4500" width="65.925" height="64.501" fill="#4d2d7c"/>
    </clipPath>
  </defs>
  <g id="Group_21313" data-name="Group 21313" transform="translate(0 0)">
    <g id="Group_21312" data-name="Group 21312" transform="translate(0 0)" clip-path="url(#clip-path)">
      <path id="Path_17911" data-name="Path 17911" d="M26.8,0a14.6,14.6,0,0,1,1.725.729c.994.544,3.614,3.012,4.386,3.055.809.045,3.517-2.513,4.505-3.055A14.48,14.48,0,0,1,39.14,0h.982c3.074.885,3.417,4.37,5.141,6.569,2.679.3,6.641-2.25,8.739.377,1.733,2.174.418,6.55,1.26,7.574.973,1.184,6.059.541,7.4,3.4,1.123,2.39-.85,4.628-1.611,6.728-.536,1.476-.294,1.486.805,2.492,1.491,1.365,3.418,2.293,4.07,4.415v1.4c-.667,2.115-2.577,3.048-4.07,4.415-1.1,1.006-1.341,1.016-.805,2.492.854,2.355,3.4,5.342.881,7.68-1.624,1.51-6.012,1.643-6.671,2.445-.842,1.025.474,5.4-1.26,7.574-2.323,2.908-6.582-.356-8.739.377-.467.159-2.286,4.716-3.532,5.724-3.014,2.437-5.442-1.066-7.761-2.47-1.063-.641-1.052-.588-2.084.057-2.255,1.41-4.642,4.751-7.6,2.473-1.322-1.018-3.154-5.629-3.612-5.784-2.032-.691-5.641,2.119-8.25.118C9.878,56.1,11.67,51.2,10.676,49.988c-.805-.982-5.371-.736-7.013-2.8-1.866-2.35.33-5.006,1.187-7.22.591-1.529.375-1.548-.767-2.594-1.9-1.739-5.057-3.237-3.792-6.453.709-1.8,4.8-4.217,4.915-5.051.112-.8-1.683-3.854-2-5-.791-2.846.5-4.269,3.121-5.084.873-.271,3.914-.724,4.351-1.258.695-.845-.19-5.143.975-7.161,1.873-3.245,6.259-.515,9.024-.79C22.4,4.381,22.75.85,25.818,0ZM51.6,8.855c-3.42.019-6.778,2.565-9.294-1.014C41.8,7.111,40.113,3.2,39.614,3.105c-.686-.131-4.189,3.74-6.572,3.776-2.556.041-5.971-3.909-6.712-3.773-.518.1-2.1,3.833-2.584,4.566-2.518,3.786-5.869,1.23-9.408,1.18-.916,3.366,1.03,7.213-3.107,8.883-.816.328-5.017,1.075-5.172,1.569-.194.619,2.1,4.569,2.228,6.007.283,3.1-2.492,4.141-4.348,5.886-1.052.992-1.058,1.111,0,2.108,1.856,1.745,4.631,2.787,4.348,5.886-.13,1.424-2.423,5.381-2.228,6.007.156.494,4.357,1.241,5.172,1.569,4.137,1.669,2.191,5.516,3.107,8.883,3.544-.045,6.88-2.622,9.408,1.18.467.7,2.091,4.476,2.58,4.569.684.131,4.189-3.74,6.572-3.776,2.667-.043,5.769,3.861,6.736,3.752.435-.05,2.317-4.319,2.895-5.051,2.326-2.943,5.328-.944,8.2-.672a2.977,2.977,0,0,0,.876,0c.916-3.366-1.03-7.213,3.107-8.883.816-.328,5.017-1.075,5.172-1.569.194-.619-2.1-4.569-2.228-6.007-.283-3.1,2.492-4.141,4.346-5.886,1.054-.992,1.059-1.111,0-2.108-1.854-1.745-4.63-2.787-4.346-5.886.131-1.438,2.421-5.388,2.228-6.007-.156-.494-4.357-1.241-5.172-1.569-4.137-1.669-2.191-5.516-3.107-8.883" transform="translate(0.001 0)" fill="#4d2d7c"/>
      <path id="Path_17912" data-name="Path 17912" d="M34.492,11.7a1.568,1.568,0,0,1,1.3,2.57l-21.106,21.1a1.542,1.542,0,0,1-2.108-2.248L33.54,12.165a2.045,2.045,0,0,1,.952-.461" transform="translate(8.822 8.515)" fill="#4d2d7c"/>
      <path id="Path_17913" data-name="Path 17913" d="M16.122,11.329c7.823-1.073,8.2,11.293.105,10.479-5.945-.6-6.023-9.669-.105-10.479m2.369,3.658a2.212,2.212,0,0,0-3.126,3.126c1.98,2.112,5.236-1.146,3.126-3.126" transform="translate(8.538 8.201)" fill="#4d2d7c"/>
      <path id="Path_17914" data-name="Path 17914" d="M24.569,20.014a5.3,5.3,0,1,1-3.776,3.1,5.437,5.437,0,0,1,3.776-3.1m2.651,3.662c-2.006-2.138-5.266,1.12-3.126,3.126a2.212,2.212,0,0,0,3.126-3.126" transform="translate(14.816 14.515)" fill="#4d2d7c"/>
    </g>
  </g>
</svg>
