<svg xmlns="http://www.w3.org/2000/svg" xmlns:xlink="http://www.w3.org/1999/xlink" width="98" height="98" viewBox="0 0 98 98">
  <defs>
    <clipPath id="clip-path">
      <rect id="Rectangle_4343" data-name="Rectangle 4343" width="44.606" height="44.514" fill="#4d2d7c" stroke="#4d2d7c" stroke-width="0.5"/>
    </clipPath>
  </defs>
  <g id="Group_21086" data-name="Group 21086" transform="translate(-1519.407 -1321)">
    <g id="Ellipse_112" data-name="Ellipse 112" transform="translate(1519.407 1321)" fill="#f9f5ff" stroke="#4d2d7c" stroke-width="2">
      <circle cx="49" cy="49" r="49" stroke="none"/>
      <circle cx="49" cy="49" r="48" fill="none"/>
    </g>
    <g id="Group_21075" data-name="Group 21075" transform="translate(1546.104 1347.743)">
      <g id="Group_21075-2" data-name="Group 21075" clip-path="url(#clip-path)">
        <path id="Path_17850" data-name="Path 17850" d="M25.753,0c2.892.674,2.7,3.391,3.1,5.758,2.507.084,4.986-.383,7.192,1.1,2.869,1.933,2.94,4.858,3.459,7.977.135.171.109.056.206,0,.221-.133.408-.331.67-.464a2.909,2.909,0,0,1,4.225,2.01v2.679a3.387,3.387,0,0,1-1.855,2.217,13.454,13.454,0,0,1,1.19,1.591,13,13,0,0,1,.665,1.962V35.955a3.812,3.812,0,0,1-1.65,2.339c-.074,1.53.262,3.132-.41,4.563H44.04c.148,0,.458.389.567.515v.618c-.229.3-.446.552-.871.52H.971a.851.851,0,0,1-.3-1.653H2.161a6.039,6.039,0,0,1-.411-1.289,31.481,31.481,0,0,0-.018-3.279c-.06-.174-.516-.359-.667-.517A3.781,3.781,0,0,1,.1,35.7c.487-3.743-1.133-10.6,1.192-13.641.12-.156.7-.63.661-.779C.065,20.424-.062,18.586.1,16.738a2.889,2.889,0,0,1,5-1.8c.115-.071.119-.148.15-.26.549-1.966.258-3.781,1.4-5.7,2.067-3.472,5.6-3.319,9.207-3.207.334-2.416.194-5.072,3.1-5.764ZM27.2,5.769c-.413-1.483.106-3.939-2-4.125a43.315,43.315,0,0,0-5.572,0c-2.261.167-1.645,2.542-2.108,4.125ZM11.719,7.446a4.969,4.969,0,0,0-4.256,3.883c-.56,2.308-.765,4.966-1.214,7.337-.111.586-.312,2.341-.752,2.647-.293.2-1.036.3-1.448.51a4.41,4.41,0,0,0-2.3,3.568c-.257,3.246.2,6.822,0,10.1a1.64,1.64,0,0,0,1.6,1.6c3.307.293,7.116-.184,10.459-.058A1.907,1.907,0,0,1,15.4,36.26c4.606-.361,9.674.281,14.329,0,.675-.083.864.759,1.432.835,3.3-.229,6.958.286,10.209,0a1.64,1.64,0,0,0,1.6-1.6c-.2-3.282.257-6.858,0-10.1a4.412,4.412,0,0,0-2.437-3.641c-.487-.228-1.392-.286-1.608-.761l-1.692-9.743a5,5,0,0,0-4.513-3.832ZM4.221,19.78V16.638a1.274,1.274,0,0,0-2.346-.286,7.108,7.108,0,0,0-.082,2.508c.078.325.62.92.934.92Zm36.264,0h1.494c.315,0,.857-.595.935-.92a7.112,7.112,0,0,0-.082-2.508,1.274,1.274,0,0,0-2.346.286ZM32.244,38.737H30.338a6.608,6.608,0,0,1-.878-.771H15.247c-.182.133-.693.771-.878.771H12.463v2.936c0,.335-.355.844-.412,1.185h20.6c-.03-.31-.412-.917-.412-1.185Zm-21.429,0H3.4V41.57c0,.5.816,1.18,1.312,1.263a29.044,29.044,0,0,0,4.875-.021c.458-.1,1.231-.776,1.231-1.242Zm30.495,0H33.892V41.57c0,.5.816,1.18,1.312,1.263a29.044,29.044,0,0,0,4.875-.021c.458-.1,1.231-.776,1.231-1.242Z" transform="translate(0)" fill="#4d2d7c" stroke="#4d2d7c" stroke-width="0.5"/>
        <path id="Path_17851" data-name="Path 17851" d="M40.671,43.911l20.788-.03a3.334,3.334,0,0,1,2.927,2.327c.862,2.751.894,6.327,1.655,9.168A2.538,2.538,0,0,1,63.825,57.9l-25.143,0a2.561,2.561,0,0,1-2.322-2.426c.67-2.893.845-6.175,1.6-9.016a3.308,3.308,0,0,1,2.707-2.547m.2,1.646a1.752,1.752,0,0,0-1.283,1.189l-1.567,8.642a.774.774,0,0,0,.5.813l24.993.051a.789.789,0,0,0,.863-.864c-.728-2.653-.726-6.011-1.523-8.583a1.627,1.627,0,0,0-1.608-1.277Z" transform="translate(-28.851 -34.819)" fill="#4d2d7c" stroke="#4d2d7c" stroke-width="0.5"/>
        <path id="Path_17852" data-name="Path 17852" d="M68.807,139.724l15.219-.015c1.16.184.571,2.182.234,2.9a5.147,5.147,0,0,1-4.139,2.867,56.017,56.017,0,0,1-7.42-.005,5.2,5.2,0,0,1-4.072-2.933c-.382-.815-.836-2.331.178-2.812m14.143,1.626H69.97a3.4,3.4,0,0,0,2.57,2.427,47.05,47.05,0,0,0,7.273.051,3.328,3.328,0,0,0,3.137-2.477" transform="translate(-54.107 -110.856)" fill="#4d2d7c" stroke="#4d2d7c" stroke-width="0.5"/>
        <path id="Path_17853" data-name="Path 17853" d="M23.842,135.661c4.422-.6,5.925,5.718,1.8,7.162-5.195,1.821-7-6.457-1.8-7.162m.2,1.647a2.064,2.064,0,0,0,.581,4.085c2.672-.255,2.248-4.513-.581-4.085" transform="translate(-16.452 -107.612)" fill="#4d2d7c" stroke="#4d2d7c" stroke-width="0.5"/>
        <path id="Path_17854" data-name="Path 17854" d="M163.519,135.661c4.422-.6,5.925,5.718,1.8,7.162-5.195,1.821-7-6.457-1.8-7.162m.2,1.647a2.064,2.064,0,0,0,.581,4.085c2.672-.255,2.248-4.513-.581-4.085" transform="translate(-127.282 -107.612)" fill="#4d2d7c" stroke="#4d2d7c" stroke-width="0.5"/>
      </g>
    </g>
  </g>
</svg>
