<svg id="Group_21955" data-name="Group 21955" xmlns="http://www.w3.org/2000/svg" xmlns:xlink="http://www.w3.org/1999/xlink" width="38.97" height="49.523" viewBox="0 0 38.97 49.523">
  <defs>
    <clipPath id="clip-path">
      <rect id="Rectangle_5337" data-name="Rectangle 5337" width="38.97" height="49.523" fill="#4d2d7c"/>
    </clipPath>
  </defs>
  <g id="Group_21954" data-name="Group 21954" clip-path="url(#clip-path)">
    <path id="Path_18619" data-name="Path 18619" d="M0,26.437V10.3a6.858,6.858,0,0,1,.508-.873c.5-.534,3.629-1.669,4.538-2.092C9.78,5.128,14.425,2.748,18.924.1a1.44,1.44,0,0,1,.967-.034c4.022,2.3,8.109,4.5,12.3,6.49,1.749.832,4.063,1.583,5.673,2.5A1.861,1.861,0,0,1,38.9,10.679c-.433,7.353,1.12,15.4-1.469,22.419-2.575,6.982-9.13,12.828-15.843,15.767-2.175.952-2.374.835-4.5-.111C8.4,44.889.579,36.625.116,26.7ZM35.338,11.751c-3.8-1.679-7.565-3.462-11.254-5.377-.664-.345-4.349-2.507-4.685-2.488C14.227,6.719,8.968,9.4,3.554,11.751L3.531,25.944c.4,9.362,7.553,16.711,15.961,19.839,8.367-3.226,15.445-10.478,15.868-19.839Z" transform="translate(0 0)" fill="#4d2d7c"/>
    <path id="Path_18620" data-name="Path 18620" d="M80.343,169.709a1.932,1.932,0,0,1,2.159-.3c2.075,1.792,3.952,3.885,6.014,5.666l10.012-8.338a1.782,1.782,0,0,1,1.887,2.994L89.64,178.846a1.879,1.879,0,0,1-2.6-.164c-2.293-1.821-4.4-4.663-6.738-6.525a1.888,1.888,0,0,1,.038-2.448" transform="translate(-71.023 -148.097)" fill="#4d2d7c"/>
  </g>
</svg>
