<svg xmlns="http://www.w3.org/2000/svg" xmlns:xlink="http://www.w3.org/1999/xlink" width="100" height="100" viewBox="0 0 100 100">
  <defs>
    <clipPath id="clip-path">
      <rect id="Rectangle_4079" data-name="Rectangle 4079" width="52" height="42.736" fill="#4d2d7f"/>
    </clipPath>
  </defs>
  <g id="Group_21442" data-name="Group 21442" transform="translate(-230.5 -2310.219)">
    <circle id="Ellipse_127" data-name="Ellipse 127" cx="50" cy="50" r="50" transform="translate(230.5 2310.219)" fill="#f6f6f9"/>
    <g id="Group_20744" data-name="Group 20744" transform="translate(254.5 2338.851)" clip-path="url(#clip-path)">
      <path id="Path_14981" data-name="Path 14981" d="M29.945,42.736c-.743-.2-1.515-.244-2.262-.444A11.479,11.479,0,0,1,19.142,32.26a11.649,11.649,0,0,1,4.245-10.5.691.691,0,0,0,.314-.573c-.016-.946-.006-1.892-.006-2.828-.06-.027-.1-.063-.122-.054a9.37,9.37,0,0,1-7.7-.337,10.256,10.256,0,0,1-1.041-.506c-.332-.189-.431-.12-.415.257a12.649,12.649,0,0,0,.673,3.926,21.086,21.086,0,0,1,.769,11.81c-.237,1.173-.377,2.365-.595,3.542-.059.317.029.426.3.557a4.13,4.13,0,0,1,2.477,3.519,1.078,1.078,0,0,1-1.181,1.341q-2.553.015-5.107,0A1.8,1.8,0,0,1,9.8,40.468c-.016-1.682,0-3.364,0-5.046a1.11,1.11,0,0,0-.1-.69c-.853.948-1.683,1.874-2.519,2.8-.164.181-.015.324.028.479a4.7,4.7,0,0,1-.252,3.281c-.461,1.015-1.188,1.187-2.1.539Q2.888,40.433.932,39.03a1.838,1.838,0,0,1-.487-2.807C1.908,34.08,3.59,32.108,5.2,30.081a2.159,2.159,0,0,0,.463-1.034c.278-1.716.526-3.437.863-5.142a5.219,5.219,0,0,0-.258-2.04,24.009,24.009,0,0,1,.529-10c.2-.824.451-1.637.7-2.45A4.176,4.176,0,0,1,9.056,7.175c.309-.223.32-.351.093-.658A4.031,4.031,0,0,1,8.961,1.9,4.1,4.1,0,0,1,13.176.075a4.039,4.039,0,0,1,3.238,3.31,3.854,3.854,0,0,1-1.42,3.826c-.366.3-.354.464-.08.8A4.291,4.291,0,0,1,15.8,9.75c.622,2.649,2.586,3.381,4.636,3.505a14.146,14.146,0,0,0,1.508-.018,3.919,3.919,0,0,1,1.752.4c0-.9,0-1.747,0-2.589a.931.931,0,0,1,.757-1.022c.615-.131,1.089.3,1.094,1.013.011,1.45,0,2.9,0,4.35s.012,2.9-.008,4.35c-.006.435.022.55.523.385.732-.241.905-.636.9-1.384a6.651,6.651,0,0,1,4.391-6.406c.1-.041.2-.1.307-.148A4.473,4.473,0,0,1,32.7,5.82a4.6,4.6,0,0,1,6.045,1.036c1.531,2.114,1.016,4.6-1.373,6.494A6.022,6.022,0,0,1,39.2,18.343c-.042,1.217,0,2.436-.013,3.654a.967.967,0,0,0,.3.77,7.965,7.965,0,0,1,1.261,1.584.7.7,0,0,0,.711.369c.638-.022,1.277-.02,1.915,0A4.375,4.375,0,0,1,47.5,27.41c.722,1.558,1.383,3.145,2.06,4.724a.891.891,0,0,0,.589.557,2.766,2.766,0,0,1,1.627,1.635c.076.173.06.386.222.521v1.044a2.069,2.069,0,0,1-2.189,1.244c-.965-.03-1.931-.027-2.9,0a2.037,2.037,0,0,1-2.1-1.31c-.57-1.265-1.181-2.511-1.786-3.76-.065-.134-.064-.35-.293-.374-.046.313-.085.619-.138.923-.844,4.81-3.471,8.1-8.193,9.607-.848.271-1.737.331-2.6.517Zm-3-20.895a.874.874,0,0,0-.59.178,9.7,9.7,0,0,0-5.367,9.728,9.948,9.948,0,0,0,19.846-.167A9.777,9.777,0,0,0,33.8,21.345c-.354-.1-.493-.076-.478.329a16.356,16.356,0,0,1-.005,1.855c-.037.487.156.693.588.884a7.189,7.189,0,0,1-4.14,13.617,6.8,6.8,0,0,1-5.8-5.441,6.716,6.716,0,0,1,2.665-7.427c.153-.116.317-.2.315-.444-.009-.961,0-1.922,0-2.877M11.66,32.762v3.246c0,1.157,0,1.133,1.15,1.162.446.011.593-.139.655-.562.2-1.356.405-2.712.661-4.057a18.285,18.285,0,0,0-.606-9.711,16.047,16.047,0,0,1-.947-5.969,1.276,1.276,0,0,0-.652-1.277,5.065,5.065,0,0,1-.976-.815.833.833,0,0,1-.024-1.206.872.872,0,0,1,1.2-.173,3.838,3.838,0,0,1,.456.357A16.843,16.843,0,0,0,17.3,16.537a7.283,7.283,0,0,0,5.318.16c.316-.121.715-.265.673-.693a1.057,1.057,0,0,0-.728-.834,1.666,1.666,0,0,0-.687-.069c-.541.008-1.084.043-1.623.008-2.649-.168-5.271-1.258-6.2-4.711A3.806,3.806,0,0,0,13.37,9a2.083,2.083,0,0,0-1.753-.851A2.45,2.45,0,0,0,9.3,9.86a27.181,27.181,0,0,0-1.5,8.23c-.05,3.407.7,6.554,3.175,9.1a2.765,2.765,0,0,1,.683,2.037c-.006,1.179,0,2.358,0,3.536m21.7-6.479c-.147,1.815-.994,2.956-2.441,3.313a3.118,3.118,0,0,1-1.988-.145,3.337,3.337,0,0,1-1.9-2.143,5.111,5.111,0,0,0-.823,6.085,5.176,5.176,0,0,0,5.72,2.772A5.285,5.285,0,0,0,36.2,31.312a4.968,4.968,0,0,0-2.838-5.029m-4.56-4.2c0,1.638-.016,2.973.005,4.306a1.338,1.338,0,1,0,2.661-.065q.007-3.915,0-7.831a2.965,2.965,0,0,1,.024-.578.905.905,0,0,1,.927-.8.892.892,0,0,1,.9.882,5.818,5.818,0,0,1,0,.927c-.027.3.116.41.376.469a10.893,10.893,0,0,1,3.26,1.323c.337.2.383.077.38-.237-.009-.967.022-1.934-.009-2.9a3.634,3.634,0,0,0-2.694-3.687,4.88,4.88,0,0,0-5.735,3.8,38.049,38.049,0,0,0-.1,4.387m19.315,13.2c.6,0,1,.017,1.409-.008.191-.012.488.142.554-.122.056-.221-.155-.42-.344-.566a.888.888,0,0,0-.53-.208,1.13,1.13,0,0,1-1.059-.833c-.676-1.6-1.378-3.188-2.07-4.781a3.124,3.124,0,0,0-3.779-2.2c-.273.029-.325.113-.248.362.156.5.3,1,.43,1.5a.326.326,0,0,0,.345.3,1.237,1.237,0,0,1,1.075.84c.659,1.417,1.418,2.793,1.995,4.242.465,1.168,1.047,1.9,2.222,1.472m-40.134-8.9c-.127.789-.259,1.41-.322,2.038a5.447,5.447,0,0,1-1.435,3.375c-.755.794-1.378,1.712-2.08,2.558-.217.262-.259.418.055.635A13.5,13.5,0,0,1,5.472,35.99c.26.232.412.225.646-.048a19.146,19.146,0,0,1,2.1-2.309A4.409,4.409,0,0,0,9.8,29.29c-.017-.114-.012-.231-.02-.346a.914.914,0,0,0-.237-.578,16.531,16.531,0,0,1-1.561-1.987M37.715,9.492a2.535,2.535,0,1,0-2.534,2.551,2.574,2.574,0,0,0,2.534-2.551M12.4,6.312a2.211,2.211,0,0,0,.046-4.422A2.211,2.211,0,0,0,12.4,6.312m1.426,34.314v-.044c.578,0,1.155.005,1.733,0,.142,0,.341.076.413-.094.063-.15-.082-.285-.166-.409a2.278,2.278,0,0,0-1.832-1.048c-.4-.022-.809-.008-1.213-.008-1.215,0-1.207,0-1.106,1.245.022.269.107.372.381.366.6-.014,1.194,0,1.79,0m-8.37-.645a1.881,1.881,0,0,0-.413-1.962C4.4,37.44,3.688,36.934,3.007,36.4c-.114-.089-.23-.243-.377-.035-.222.314-.443.629-.67.94-.122.167,0,.236.11.313l3.38,2.364" transform="translate(0 0)" fill="#4d2d7f"/>
    </g>
  </g>
</svg>
