<svg xmlns="http://www.w3.org/2000/svg" xmlns:xlink="http://www.w3.org/1999/xlink" width="48.72" height="48.147" viewBox="0 0 48.72 48.147">
  <defs>
    <clipPath id="clip-path">
      <rect id="Rectangle_4566" data-name="Rectangle 4566" width="48.72" height="48.147" fill="none"/>
    </clipPath>
  </defs>
  <g id="Group_21417" data-name="Group 21417" transform="translate(0 0.003)">
    <g id="Group_21413" data-name="Group 21413" transform="translate(0 -0.003)" clip-path="url(#clip-path)">
      <path id="Path_18234" data-name="Path 18234" d="M360.64,338.38h17.966v-.174a2.5,2.5,0,0,0-2.495-2.495H360.64Z" transform="translate(-343.381 -319.642)" fill="#25dddb"/>
      <rect id="Rectangle_4561" data-name="Rectangle 4561" width="12.631" height="1.381" transform="translate(0.914 2.224)" fill="#25dddb"/>
      <path id="Path_18235" data-name="Path 18235" d="M5.893,32.959H1.336a1.336,1.336,0,0,0,0,2.672H5.893a1.336,1.336,0,0,0,0-2.672" transform="translate(0 -31.381)" fill="#6796ae"/>
      <rect id="Rectangle_4562" data-name="Rectangle 4562" width="1.335" height="23.767" transform="translate(16.591 23.349)" fill="#9ed4f0"/>
      <rect id="Rectangle_4563" data-name="Rectangle 4563" width="1.335" height="23.767" transform="translate(8.384 27.302) rotate(-45)" fill="#9ed4f0"/>
      <rect id="Rectangle_4564" data-name="Rectangle 4564" width="23.767" height="1.335" transform="translate(5.375 34.565)" fill="#9ed4f0"/>
      <rect id="Rectangle_4565" data-name="Rectangle 4565" width="23.767" height="1.335" transform="translate(8.384 43.164) rotate(-45)" fill="#9ed4f0"/>
      <path id="Path_18236" data-name="Path 18236" d="M239.453,22.662l-4.32,1.158L229.5,2.813a2.236,2.236,0,0,1,1.58-2.74h0a2.237,2.237,0,0,1,2.739,1.582Z" transform="translate(-218.447 0.003)" fill="#6796ae"/>
      <path id="Path_18237" data-name="Path 18237" d="M274.111,638.1c0,.174-.017.357-.017.517a4.717,4.717,0,0,1-.8,2.1,5,5,0,0,1-1,1.034,4.615,4.615,0,0,1-3.475.872,4.547,4.547,0,0,1-2.174-.959,4.161,4.161,0,0,1-.944-1.069,4.505,4.505,0,0,1-.73-1.978c0-.16-.017-.338-.017-.517a4.875,4.875,0,0,1,.087-.891,4.691,4.691,0,0,1,.838-1.871,4.5,4.5,0,0,1,1.015-1,4.611,4.611,0,0,1,3.35-.784,4.8,4.8,0,0,1,1.8.7,4.427,4.427,0,0,1,1.034.959,4.324,4.324,0,0,1,.944,2,4.869,4.869,0,0,1,.087.891" transform="translate(-252.273 -603.183)" fill="#394e56"/>
      <path id="Path_18238" data-name="Path 18238" d="M300.286,665.949a3.195,3.195,0,1,1-3.194-3.194,3.195,3.195,0,0,1,3.194,3.194" transform="translate(-279.833 -631.038)" fill="#72a7c2"/>
      <path id="Path_18239" data-name="Path 18239" d="M792.35,822.412a4.472,4.472,0,1,1-5.478-3.162,4.472,4.472,0,0,1,5.478,3.162" transform="translate(-746.057 -779.895)" fill="#394e56"/>
      <path id="Path_18240" data-name="Path 18240" d="M811.5,842.8a3.461,3.461,0,1,1-4.239-2.448A3.461,3.461,0,0,1,811.5,842.8" transform="translate(-766.189 -800.026)" fill="#fff"/>
      <path id="Path_18241" data-name="Path 18241" d="M795.94,656.727l-3.322-12.4-1.442.386,3.321,12.4a.545.545,0,0,0,.667.385l.39-.1a.545.545,0,0,0,.385-.667" transform="translate(-753.314 -613.495)" fill="#72a7c2"/>
      <path id="Path_18242" data-name="Path 18242" d="M848.057,881.624c.016.058.025.117.039.168a1.582,1.582,0,0,1-.077.75,1.678,1.678,0,0,1-.234.421,1.545,1.545,0,0,1-1.046.583,1.523,1.523,0,0,1-.784-.123,1.392,1.392,0,0,1-.4-.262,1.511,1.511,0,0,1-.408-.576c-.014-.052-.035-.108-.051-.166a1.63,1.63,0,0,1-.049-.3,1.57,1.57,0,0,1,.109-.677,1.505,1.505,0,0,1,.242-.411,1.542,1.542,0,0,1,1.015-.544,1.608,1.608,0,0,1,.642.069,1.483,1.483,0,0,1,.417.221,1.448,1.448,0,0,1,.479.564,1.622,1.622,0,0,1,.106.281" transform="translate(-804.599 -838.346)" fill="#394e56"/>
      <path id="Path_18243" data-name="Path 18243" d="M856.8,891.058a1.069,1.069,0,1,1-1.307-.757,1.07,1.07,0,0,1,1.307.757" transform="translate(-813.794 -847.66)" fill="#72a7c2"/>
      <path id="Path_18244" data-name="Path 18244" d="M559.8,554.7H548.343l2.9,5.171h8.56a2.586,2.586,0,1,0,0-5.171" transform="translate(-522.101 -528.15)" fill="#6796ae"/>
      <path id="Path_18245" data-name="Path 18245" d="M97.6,453.529a13.221,13.221,0,1,0,13.222,13.222A13.221,13.221,0,0,0,97.6,453.529m0,23.8a10.577,10.577,0,1,1,10.576-10.576A10.577,10.577,0,0,1,97.6,477.327" transform="translate(-80.342 -431.825)" fill="#394e56"/>
      <path id="Path_18246" data-name="Path 18246" d="M861.626,770.706H854.7v-1.777h6.929a.889.889,0,1,1,0,1.777" transform="translate(-813.795 -732.131)" fill="#72a7c2"/>
    </g>
  </g>
</svg>
