<svg xmlns="http://www.w3.org/2000/svg" xmlns:xlink="http://www.w3.org/1999/xlink" width="103.671" height="36.239" viewBox="0 0 103.671 36.239">
  <defs>
    <clipPath id="clip-path">
      <rect id="Rectangle_4527" data-name="Rectangle 4527" width="103.671" height="36.239" fill="none"/>
    </clipPath>
  </defs>
  <g id="Group_21327" data-name="Group 21327" transform="translate(0 0)">
    <g id="Group_21326" data-name="Group 21326" transform="translate(0 0)" clip-path="url(#clip-path)">
      <path id="Path_17917" data-name="Path 17917" d="M110.06,4.013,106.1.841A4.234,4.234,0,0,0,103.827,0H47.195a4.237,4.237,0,0,0-2.277.841L33.083,10.329c-1.186.951-1.368,1.762-.345,1.762H110.06Z" transform="translate(-15.413 0)" fill="#eaeaea"/>
      <path id="Path_17918" data-name="Path 17918" d="M103.619,34.067c0,.869-.725,1.391-1.574,1.575-1.859.4-6.636,1.574-7.523,1.574H2.36A1.575,1.575,0,0,1,.785,35.642V30.627l.525-1.4V18.205L3.934,7.883A2.448,2.448,0,0,1,6.048,5.959h95.209a2.136,2.136,0,0,1,1.753,1.924c.28,3.743.608,10.156.608,10.156Z" transform="translate(-0.377 -2.864)"/>
      <path id="Path_17919" data-name="Path 17919" d="M103.641,32.88c0,.875-.729,1.4-1.584,1.584-1.87.4-6.674,1.584-7.567,1.584H1.79A1.584,1.584,0,0,1,.206,34.463V29.419l.528-1.408V16.925L3.373,6.543A2.462,2.462,0,0,1,5.5,4.607h95.766a2.149,2.149,0,0,1,1.764,1.936c.282,3.765.612,10.215.612,10.215Z" transform="translate(-0.099 -2.214)" fill="#eaeaea"/>
      <path id="Path_17920" data-name="Path 17920" d="M36.373,40.3c-12.29,0-14.156,8.035-21.787,8.035-3.373,0-12.636-.012-14.381-.014V49.2s10.625.014,14.38.014c7.631,0,9.5-5.335,21.787-5.335h66.8l-.005-3.578Z" transform="translate(-0.099 -19.367)" fill="#322570"/>
      <path id="Path_17921" data-name="Path 17921" d="M5.848,57.828h11.5V49.854H5.848Zm11.176-.344H6.306V50.558H17.024Z" transform="translate(-2.811 -23.96)" fill="#172333"/>
      <path id="Path_17922" data-name="Path 17922" d="M103.822,16.666c-.078-1.484-.352-6.606-.591-9.8a1.628,1.628,0,0,0-1.584-1.584H5.16A1.566,1.566,0,0,0,3.582,6.534L.937,16.767v11.57l-.309.824s10.455.014,14.228.014c7.666,0,9.54-12.508,21.887-12.508Z" transform="translate(-0.302 -2.54)" fill="#172333"/>
      <rect id="Rectangle_4507" data-name="Rectangle 4507" width="16.866" height="9.642" transform="translate(51.185 3.449)" fill="#80c2dc"/>
      <path id="Path_17923" data-name="Path 17923" d="M5.043,6.64H4.792c-.485,0-.642.195-.749.607C3.458,9.5,1.622,16.614,1.622,16.614h1.07Z" transform="translate(-0.78 -3.191)" fill="#80c2dc"/>
      <path id="Path_17924" data-name="Path 17924" d="M7.789,6.64c-.022.124-2.374,9.642-2.374,9.642H19.149V6.64Z" transform="translate(-2.602 -3.191)" fill="#80c2dc"/>
      <rect id="Rectangle_4508" data-name="Rectangle 4508" width="16.866" height="9.642" transform="translate(68.977 3.449)" fill="#80c2dc"/>
      <path id="Path_17925" data-name="Path 17925" d="M167.023,16.281H183.05c-.109-1.965-.343-6.071-.55-8.74a.917.917,0,0,0-.881-.9h-14.6Z" transform="translate(-80.272 -3.191)" fill="#80c2dc"/>
      <rect id="Rectangle_4509" data-name="Rectangle 4509" width="17.218" height="9.642" transform="translate(33.115 3.449)" fill="#80c2dc"/>
      <path id="Path_17926" data-name="Path 17926" d="M48.358,6.64H33.6v9.642H48.358Z" transform="translate(-16.15 -3.191)" fill="#80c2dc"/>
      <rect id="Rectangle_4510" data-name="Rectangle 4510" width="2.324" height="9.651" transform="translate(0.601 15.076)" fill="#80c2dc"/>
      <rect id="Rectangle_4511" data-name="Rectangle 4511" width="10.093" height="9.388" transform="translate(4.035 15.047)" fill="#80c2dc"/>
      <path id="Path_17927" data-name="Path 17927" d="M30.247,38.357,39.19,28.97h-9.74v9.388Z" transform="translate(-14.154 -13.923)" fill="#80c2dc"/>
      <rect id="Rectangle_4512" data-name="Rectangle 4512" width="2.641" height="1.223" transform="translate(0 27.179)" fill="#fff"/>
      <rect id="Rectangle_4513" data-name="Rectangle 4513" width="1.216" height="0.917" transform="translate(1.119 27.332)" fill="#f49625"/>
      <rect id="Rectangle_4514" data-name="Rectangle 4514" width="2.641" height="1.223" transform="translate(101.03 27.179)" fill="#fff"/>
      <rect id="Rectangle_4515" data-name="Rectangle 4515" width="1.216" height="0.917" transform="translate(101.336 27.332)" fill="#f49625"/>
      <rect id="Rectangle_4516" data-name="Rectangle 4516" width="0.933" height="0.917" transform="translate(102.739 27.332)" fill="#db3535"/>
      <rect id="Rectangle_4517" data-name="Rectangle 4517" width="1.101" height="1.043" transform="translate(0 30.498)" fill="#fff"/>
      <rect id="Rectangle_4518" data-name="Rectangle 4518" width="2.641" height="1.223" transform="translate(15.354 27.179)" fill="#fff"/>
      <rect id="Rectangle_4519" data-name="Rectangle 4519" width="2.054" height="0.917" transform="translate(15.636 27.332)" fill="#f49625"/>
      <rect id="Rectangle_4520" data-name="Rectangle 4520" width="2.641" height="0.642" transform="translate(10.812 27.375)" fill="#172333"/>
      <rect id="Rectangle_4521" data-name="Rectangle 4521" width="2.641" height="1.223" transform="translate(36.998 27.179)" fill="#fff"/>
      <rect id="Rectangle_4522" data-name="Rectangle 4522" width="2.054" height="0.917" transform="translate(37.28 27.332)" fill="#f49625"/>
      <rect id="Rectangle_4523" data-name="Rectangle 4523" width="2.641" height="1.223" transform="translate(60.355 27.179)" fill="#fff"/>
      <rect id="Rectangle_4524" data-name="Rectangle 4524" width="2.054" height="0.917" transform="translate(60.637 27.332)" fill="#f49625"/>
      <rect id="Rectangle_4525" data-name="Rectangle 4525" width="2.641" height="1.223" transform="translate(93.741 27.179)" fill="#fff"/>
      <rect id="Rectangle_4526" data-name="Rectangle 4526" width="2.054" height="0.917" transform="translate(94.022 27.332)" fill="#f49625"/>
      <path id="Path_17928" data-name="Path 17928" d="M45.644,57.64V53.774A4.234,4.234,0,0,0,41.41,49.54H40a4.234,4.234,0,0,0-4.234,4.234V57.64Z" transform="translate(-17.189 -23.809)"/>
      <path id="Path_17929" data-name="Path 17929" d="M45.559,56.478A4.663,4.663,0,1,1,40.9,51.815a4.663,4.663,0,0,1,4.663,4.663" transform="translate(-17.414 -24.902)" fill="#2a2a2b"/>
      <path id="Path_17930" data-name="Path 17930" d="M45.464,57.658a3.387,3.387,0,1,1-3.387-3.387,3.387,3.387,0,0,1,3.387,3.387" transform="translate(-18.594 -26.083)" fill="#97989c"/>
      <path id="Path_17931" data-name="Path 17931" d="M45.274,60.019a.836.836,0,1,1-.836-.836.836.836,0,0,1,.836.836" transform="translate(-20.955 -28.444)" fill="#091119"/>
      <path id="Path_17932" data-name="Path 17932" d="M167.488,57.64V53.774a4.234,4.234,0,0,0-4.234-4.234h-1.411a4.234,4.234,0,0,0-4.234,4.234V57.64Z" transform="translate(-75.748 -23.809)"/>
      <path id="Path_17933" data-name="Path 17933" d="M167.4,56.478a4.663,4.663,0,1,1-4.663-4.663,4.663,4.663,0,0,1,4.663,4.663" transform="translate(-75.973 -24.902)" fill="#2a2a2b"/>
      <path id="Path_17934" data-name="Path 17934" d="M167.308,57.658a3.387,3.387,0,1,1-3.387-3.387,3.387,3.387,0,0,1,3.387,3.387" transform="translate(-77.153 -26.083)" fill="#97989c"/>
      <path id="Path_17935" data-name="Path 17935" d="M167.118,60.019a.836.836,0,1,1-.836-.836.836.836,0,0,1,.836.836" transform="translate(-79.515 -28.444)" fill="#091119"/>
      <path id="Path_17936" data-name="Path 17936" d="M144.8,57.64V53.774a4.234,4.234,0,0,0-4.234-4.234h-1.412a4.233,4.233,0,0,0-4.234,4.234V57.64Z" transform="translate(-64.846 -23.809)"/>
      <path id="Path_17937" data-name="Path 17937" d="M144.719,56.478a4.663,4.663,0,1,1-4.663-4.663,4.663,4.663,0,0,1,4.663,4.663" transform="translate(-65.071 -24.902)" fill="#2a2a2b"/>
      <path id="Path_17938" data-name="Path 17938" d="M144.624,57.658a3.387,3.387,0,1,1-3.387-3.387,3.387,3.387,0,0,1,3.387,3.387" transform="translate(-66.251 -26.083)" fill="#97989c"/>
      <path id="Path_17939" data-name="Path 17939" d="M144.434,60.019a.836.836,0,1,1-.836-.836.836.836,0,0,1,.836.836" transform="translate(-68.612 -28.444)" fill="#091119"/>
      <path id="Path_17940" data-name="Path 17940" d="M7.1,26.237a.484.484,0,1,0-.484.484.484.484,0,0,0,.484-.484" transform="translate(-2.949 -12.377)" fill="#070f16"/>
      <path id="Path_17941" data-name="Path 17941" d="M5.849,26.766v-.294a1.066,1.066,0,0,0-1.008,1.062v.5a.625.625,0,0,0-.46.537v3.936c0,.34.394.615.88.615a1.207,1.207,0,0,0,.309-.041V28a1.207,1.207,0,0,0-.309-.042,1.166,1.166,0,0,0-.129.009v-.436a.771.771,0,0,1,.717-.768" transform="translate(-2.106 -12.722)" fill="#0e1823"/>
    </g>
  </g>
</svg>
