<svg xmlns="http://www.w3.org/2000/svg" xmlns:xlink="http://www.w3.org/1999/xlink" width="93.808" height="53.904" viewBox="0 0 93.808 53.904">
  <defs>
    <clipPath id="clip-path">
      <rect id="Rectangle_4569" data-name="Rectangle 4569" width="93.808" height="53.904" transform="translate(0 0)" fill="none"/>
    </clipPath>
  </defs>
  <g id="Group_21416" data-name="Group 21416" transform="translate(0 0)">
    <g id="Group_21415" data-name="Group 21415" clip-path="url(#clip-path)">
      <path id="Path_18247" data-name="Path 18247" d="M1.75,42.893c0,5.045,2.308,5.148,5.251,5.148H36.14a.787.787,0,0,0,.787-.787V6.922a.787.787,0,0,0-.787-.787H16.268c-1.548,0-3.834,1.148-5.663,3.5,0,0-8.855,10.5-8.855,19.151Z" fill="#eaeaea"/>
      <path id="Path_18248" data-name="Path 18248" d="M16.526,36.582H1.751v6.311c0,5.045,2.308,5.148,5.251,5.148h9.524Z" fill="#2a2a2b"/>
      <path id="Path_18249" data-name="Path 18249" d="M32.054,18.723V7.552H17.195a6.484,6.484,0,0,0-5.47,2.953l-.018.022-.017.022A50.372,50.372,0,0,0,4.911,21.52v7.9c10.122,0,27.143-8.771,27.143-10.7" fill="#2a2a2b"/>
      <path id="Path_18250" data-name="Path 18250" d="M17.195,8.182c-2.036,0-3.477.785-4.974,2.711l-.018.022-.032.039a50.012,50.012,0,0,0-6.6,10.617L11.8,27.8a63.951,63.951,0,0,0,9.834-3.411c5.861-2.544,9.478-4.972,9.786-5.708V8.182Z" fill="#80c2dc"/>
      <path id="Path_18251" data-name="Path 18251" d="M3.81,23.433c-.342,0-.635.495-.76,1.2A3.438,3.438,0,0,1,2.078,22.2H3.224V15.814H.788A.787.787,0,0,0,0,16.6V21.41a.787.787,0,0,0,.788.787H1.31c-.028.874.092,2.895,1.7,3.653.088.858.412,1.5.8,1.5.455,0,.824-.876.824-1.957s-.369-1.956-.824-1.956" fill="#2a2a2b"/>
      <path id="Path_18252" data-name="Path 18252" d="M1.692,35.291a5.757,5.757,0,0,0,.118,1.225H4.781A17.767,17.767,0,0,0,5.9,31.857a12.092,12.092,0,0,0-4.2.739Z" fill="#fff"/>
      <path id="Path_18253" data-name="Path 18253" d="M24.3,33.832a12.356,12.356,0,0,1,7.615,14.209H36.14a.787.787,0,0,0,.787-.787V33.832Z" fill="#2a2a2b"/>
      <path id="Path_18254" data-name="Path 18254" d="M33.926,45.364a11.9,11.9,0,0,0-8.981-11.532h-.229a11.85,11.85,0,0,0-2.682-.309c-.115,0-.228.006-.341.009l-.348.013A11.84,11.84,0,0,0,10.193,45.364c0,.058,0,.116,0,.174H2.062c0,.017.011.033.016.05.022.07.044.139.068.2.011.031.022.06.033.09.02.051.04.1.061.151.012.029.025.058.038.087q.035.077.072.15c.011.021.021.044.033.065.035.066.071.129.109.191l.039.059c.027.042.055.083.084.122.016.023.032.045.049.067s.056.071.085.1l.049.058c.038.042.077.083.116.122.011.01.021.021.032.032.044.042.09.083.136.121l.057.045c.033.027.067.052.1.077l.062.043c.037.025.074.048.111.071l.055.034c.054.031.11.061.166.089l.05.023.13.059.069.028L4,47.727l.07.024c.049.016.1.031.148.045l.045.014c.064.018.128.034.194.049l.069.015.139.028.078.014.143.022.071.011.211.026.044,0L5.4,48,5.476,48l.154.01.08,0,.176.008.057,0,.234.007h.07l.175,0h27.2a11.92,11.92,0,0,0,.3-2.677" fill="#161616"/>
      <path id="Rectangle_4567" data-name="Rectangle 4567" d="M.788,0h4.4a.788.788,0,0,1,.788.788V2.1a.788.788,0,0,1-.788.788H.787A.787.787,0,0,1,0,2.1V.788A.788.788,0,0,1,.788,0Z" transform="translate(27.273 27.623)" fill="#161616"/>
      <path id="Path_18255" data-name="Path 18255" d="M12.176,44.737A9.167,9.167,0,1,1,21.343,53.9a9.167,9.167,0,0,1-9.167-9.167" fill="#2a2a2b"/>
      <path id="Path_18256" data-name="Path 18256" d="M16.925,40.319a6.248,6.248,0,1,1,0,8.836,6.248,6.248,0,0,1,0-8.836" fill="#97989c"/>
      <path id="Path_18257" data-name="Path 18257" d="M17.643,41.036c2.44-2.44,1.767,1.546,3.811,3.59s6.03,1.371,3.59,3.811-1.767-1.547-3.811-3.59-6.03-1.371-3.59-3.811" fill="#2a2a2b"/>
      <path id="Path_18258" data-name="Path 18258" d="M25.044,41.036c2.44,2.44-1.547,1.767-3.59,3.811s-1.371,6.03-3.811,3.59,1.547-1.767,3.59-3.811,1.371-6.03,3.811-3.59" fill="#2a2a2b"/>
      <path id="Path_18259" data-name="Path 18259" d="M20.143,43.537a1.7,1.7,0,1,1,0,2.4,1.7,1.7,0,0,1,0-2.4" fill="#97989c"/>
      <rect id="Rectangle_4568" data-name="Rectangle 4568" width="55.514" height="46.537" rx="2.835" transform="translate(38.294 1.423)" fill="#eaeaea"/>
      <path id="Path_18260" data-name="Path 18260" d="M38.294,43.441v1.716a2.835,2.835,0,0,0,2.835,2.835H90.973a2.836,2.836,0,0,0,2.835-2.835V43.441Z" fill="#161616"/>
      <path id="Path_18261" data-name="Path 18261" d="M86.04,45.927a11.372,11.372,0,1,0-22.618,0Z" fill="#161616"/>
      <path id="Path_18262" data-name="Path 18262" d="M65.564,44.737A9.167,9.167,0,1,1,74.731,53.9a9.167,9.167,0,0,1-9.167-9.167" fill="#2a2a2b"/>
      <path id="Path_18263" data-name="Path 18263" d="M70.313,40.319a6.248,6.248,0,1,1,0,8.836,6.247,6.247,0,0,1,0-8.836" fill="#97989c"/>
      <path id="Path_18264" data-name="Path 18264" d="M71.03,41.036c2.44-2.44,1.767,1.546,3.811,3.59s6.03,1.371,3.59,3.811-1.767-1.547-3.811-3.59-6.03-1.371-3.59-3.811" fill="#2a2a2b"/>
      <path id="Path_18265" data-name="Path 18265" d="M78.431,41.036c2.44,2.44-1.546,1.767-3.59,3.811s-1.371,6.03-3.811,3.59,1.547-1.767,3.59-3.811,1.371-6.03,3.811-3.59" fill="#2a2a2b"/>
      <path id="Path_18266" data-name="Path 18266" d="M73.531,43.537a1.7,1.7,0,1,1,0,2.4,1.7,1.7,0,0,1,0-2.4" fill="#97989c"/>
      <path id="Path_18267" data-name="Path 18267" d="M2.683,39.557H1.751v2.992h.932a1.5,1.5,0,0,0,0-2.992" fill="#fff"/>
      <path id="Path_18268" data-name="Path 18268" d="M93.808,29.977a2.833,2.833,0,0,0-2.478,2.81v6.219a2.832,2.832,0,0,0,2.478,2.81Z" fill="#af2d00"/>
      <path id="Path_18269" data-name="Path 18269" d="M27.521,2.828c.366,1.145,1.176,3.056.469,3.056L22.3,6.135c-.708,0-.984-2.162-.658-3.307l.33-1.161C22.242.716,22.911,0,23.486,0h2.089c.575,0,1.27.716,1.574,1.667Z" fill="#322570"/>
    </g>
  </g>
</svg>
