<svg id="Group_21394" data-name="Group 21394" xmlns="http://www.w3.org/2000/svg" xmlns:xlink="http://www.w3.org/1999/xlink" width="111.602" height="38.439" viewBox="0 0 111.602 38.439">
  <defs>
    <clipPath id="clip-path">
      <rect id="Rectangle_4551" data-name="Rectangle 4551" width="111.602" height="38.439" transform="translate(0 0)" fill="none"/>
    </clipPath>
  </defs>
  <g id="Group_21393" data-name="Group 21393" clip-path="url(#clip-path)">
    <path id="Path_18115" data-name="Path 18115" d="M61.021,2.828c.366,1.145.116,2.155-.592,2.155H56.964c-.708,0-.994-1.01-.668-2.155l.33-1.161C56.9.716,57.566,0,58.141,0h.934c.575,0,1.27.716,1.574,1.667Z" fill="#322570"/>
    <path id="Path_18116" data-name="Path 18116" d="M56.041,5.4c-3.418.109-6.4.321-8.67.625-4.246.568-12.245,6.674-16.089,10.1H50.849q2.54-5.367,5.192-10.725" fill="#80c2dc"/>
    <path id="Path_18117" data-name="Path 18117" d="M74.533,4.939a67.732,67.732,0,0,1,9.837.676c1.322.29,11.253,5.463,17.733,9.267l-19.568.782q-3.945-5.368-8-10.725" fill="#80c2dc"/>
    <path id="Path_18118" data-name="Path 18118" d="M106.914,13.763l-7.683.134c-3.468-1.821-12.389-6.312-15.258-8.224-3.493-2.329-23.951-1.829-31.436-1-6.932.77-15,7.671-18.931,10.4C5.8,17.058,2.708,18.538,1.132,25.072-1.436,35.721,10.866,31,23.547,31H63.874c12.681,0,45.664-5.824,45.664-9.71,0,0,.075-7.378-2.624-7.524" fill="#eaeaea"/>
    <path id="Path_18119" data-name="Path 18119" d="M81.254,15.425c5.457,0,8.971-1.128,8.971-2.521,0-2.465-4.794-4.354-7.131-5.912-.987-.657-5.49-1.425-14.938-1.425a141.737,141.737,0,0,0-14.421.58c-5.063.562-11.773,7.126-13.473,9.278Z" fill="#2a2a2b"/>
    <path id="Path_18120" data-name="Path 18120" d="M62.53,6.163c-3.5.088-6.51.261-8.737.509-4.165.463-9.861,5.434-12.386,8.225h20.32c.226-2.914.5-5.825.8-8.734" fill="#80c2dc"/>
    <path id="Path_18121" data-name="Path 18121" d="M76.1,6.323c-2.068-.138-4.68-.228-7.942-.228-1.543,0-3.029.014-4.445.041-.3,2.918-.58,5.837-.809,8.76H79.5a73.876,73.876,0,0,0-3.4-8.573" fill="#80c2dc"/>
    <path id="Path_18122" data-name="Path 18122" d="M110.387,32.371c0,1.167-16.16,3.636-17.3,3.636H3.282a2.09,2.09,0,0,1-2.067-2.113v-5.1a2.09,2.09,0,0,1,2.067-2.113L108.32,23.064a2.09,2.09,0,0,1,2.067,2.113Z" fill="#091119"/>
    <path id="Path_18123" data-name="Path 18123" d="M84.866,8.647C84.1,8.222,83.385,7.82,82.8,7.431c-.445-.3-2.027-.716-5.356-1.006A76.951,76.951,0,0,1,80.728,14.9h.526c5.966,0,8.442-1.3,8.442-1.993,0-1.557-2.678-3.053-4.83-4.256" fill="#80c2dc"/>
    <path id="Path_18124" data-name="Path 18124" d="M111.6,30.522c0,1.167-16.52,3.636-17.687,3.636H2.113A2.113,2.113,0,0,1,0,32.045v-5.1A2.113,2.113,0,0,1,2.113,24.83l107.376-3.615a2.113,2.113,0,0,1,2.113,2.113Z" fill="#d3d3d3"/>
    <path id="Path_18125" data-name="Path 18125" d="M2.388,23.722H9.58c.841,0,1.9-4.262.554-4.262s-7.746,1-7.746,4.262" fill="#fff"/>
    <path id="Path_18126" data-name="Path 18126" d="M93.916,34.159c.406,0,2.666-.3,5.442-.737a9.261,9.261,0,0,0,.41-2.716,9.44,9.44,0,0,0-18.881,0,9.326,9.326,0,0,0,.665,3.453Z" fill="#091119"/>
    <path id="Path_18127" data-name="Path 18127" d="M29.752,34.159a9.326,9.326,0,0,0,.665-3.453,9.44,9.44,0,0,0-18.881,0,9.326,9.326,0,0,0,.665,3.453Z" fill="#091119"/>
    <path id="Path_18128" data-name="Path 18128" d="M13.243,30.706a7.733,7.733,0,1,1,7.733,7.733,7.733,7.733,0,0,1-7.733-7.733" fill="#2a2a2b"/>
    <path id="Path_18129" data-name="Path 18129" d="M17.25,26.979a5.271,5.271,0,1,1,0,7.454,5.271,5.271,0,0,1,0-7.454" fill="#97989c"/>
    <path id="Path_18130" data-name="Path 18130" d="M17.855,27.584c2.058-2.058,1.491,1.305,3.215,3.029s5.087,1.156,3.028,3.214-1.49-1.3-3.214-3.028-5.087-1.157-3.029-3.215" fill="#2a2a2b"/>
    <path id="Path_18131" data-name="Path 18131" d="M24.1,27.584c2.058,2.058-1.305,1.491-3.029,3.215s-1.156,5.087-3.214,3.028,1.3-1.49,3.028-3.214,1.156-5.087,3.215-3.029" fill="#2a2a2b"/>
    <path id="Path_18132" data-name="Path 18132" d="M19.965,29.694a1.431,1.431,0,1,1,0,2.024,1.431,1.431,0,0,1,0-2.024" fill="#97989c"/>
    <path id="Path_18133" data-name="Path 18133" d="M82.594,30.706a7.733,7.733,0,1,1,7.733,7.733,7.733,7.733,0,0,1-7.733-7.733" fill="#2a2a2b"/>
    <path id="Path_18134" data-name="Path 18134" d="M86.6,26.979a5.271,5.271,0,1,1,0,7.454,5.271,5.271,0,0,1,0-7.454" fill="#97989c"/>
    <path id="Path_18135" data-name="Path 18135" d="M87.206,27.584c2.058-2.058,1.491,1.305,3.215,3.029s5.087,1.156,3.028,3.214-1.49-1.3-3.214-3.028-5.088-1.157-3.029-3.215" fill="#2a2a2b"/>
    <path id="Path_18136" data-name="Path 18136" d="M93.449,27.584c2.059,2.058-1.305,1.491-3.029,3.215s-1.156,5.087-3.214,3.028,1.3-1.49,3.028-3.214,1.157-5.087,3.215-3.029" fill="#2a2a2b"/>
    <path id="Path_18137" data-name="Path 18137" d="M89.315,29.694a1.431,1.431,0,1,1,0,2.024,1.431,1.431,0,0,1,0-2.024" fill="#97989c"/>
    <path id="Path_18138" data-name="Path 18138" d="M40.984,13.074H39.6a2.86,2.86,0,0,0-2.608,2.077,1.559,1.559,0,0,0,1.546,2.077h1.386Z" fill="#d3d3d3"/>
    <path id="Path_18139" data-name="Path 18139" d="M62.446,17.042a.792.792,0,0,1-.792.792H56.107a.792.792,0,1,1,0-1.584h5.547a.792.792,0,0,1,.792.792" fill="#2a2a2b"/>
    <path id="Path_18140" data-name="Path 18140" d="M80.672,17.042a.792.792,0,0,1-.792.792H74.333a.792.792,0,1,1,0-1.584H79.88a.792.792,0,0,1,.792.792" fill="#2a2a2b"/>
    <path id="Path_18141" data-name="Path 18141" d="M108.836,15.9l-2.4.087a.828.828,0,0,0-.808,1.149l.886,2.988A1.668,1.668,0,0,0,108,21.277h1.963c-.039-1.247-.061-4.276-1.129-5.373" fill="#af2d00"/>
  </g>
</svg>
