<svg xmlns="http://www.w3.org/2000/svg" xmlns:xlink="http://www.w3.org/1999/xlink" width="115.34" height="46.747" viewBox="0 0 115.34 46.747">
  <defs>
    <clipPath id="clip-path">
      <rect id="Rectangle_4560" data-name="Rectangle 4560" width="115.34" height="46.747" transform="translate(0 0)" fill="none"/>
    </clipPath>
  </defs>
  <g id="Group_21412" data-name="Group 21412" transform="translate(0 0)">
    <g id="Group_21411" data-name="Group 21411" clip-path="url(#clip-path)">
      <path id="Path_18202" data-name="Path 18202" d="M64.016,2.828c.366,1.145,1.176,3.056.469,3.056l-5.691.251c-.708,0-.984-2.162-.658-3.307l.33-1.161C58.737.716,59.406,0,59.981,0H62.07c.575,0,1.27.716,1.574,1.667Z" fill="#322570"/>
      <path id="Path_18203" data-name="Path 18203" d="M30.97,15.488c-7.818,5.176-13.736,10.3-12.814,11.661s8.009-1.738,15.827-6.914S47.392,9.763,46.47,8.406s-7.681,1.906-15.5,7.082" fill="#80c2dc"/>
      <path id="Path_18204" data-name="Path 18204" d="M69.086,10.778c.366,1.145.116,2.155-.592,2.155H55.025c-.708,0-.994-1.01-.669-2.155l.331-1.161c.27-.951.94-1.667,1.514-1.667H67.14c.575,0,1.27.716,1.574,1.667Z" fill="#f4cc25"/>
      <path id="Path_18205" data-name="Path 18205" d="M65.061,9.718H64.043V8.7h1.018Zm-1.988,0V8.7H62.055V9.718h.97v.96h-.97v-.96h-.97V8.7H60.068V9.718h.969v.96h-.969v-.96H59.1V8.7H58.08V9.718h.97v.96h-.97V11.7H59.1v-.961h.97V11.7h1.017v-.961h.97V11.7h1.018v-.961h.97V11.7h1.018V10.678H64.043v-.96Z" fill="#091119"/>
      <path id="Path_18206" data-name="Path 18206" d="M56.041,13.711c-3.418.109-6.4.321-8.67.625-4.246.568-12.245,6.674-16.089,10.1H50.849q2.54-5.367,5.192-10.725" fill="#80c2dc"/>
      <path id="Path_18207" data-name="Path 18207" d="M74.533,13.247a67.732,67.732,0,0,1,9.837.676c1.322.29,11.253,5.463,17.733,9.267l-19.568.782q-3.945-5.369-8-10.725" fill="#80c2dc"/>
      <path id="Path_18208" data-name="Path 18208" d="M110.4,3.852c-3.493-2.771-50.774.785-58.258,1.774-6.932.917-22.076,11.283-26.006,14.536C-1.671,22.517,1.851,29.409,1.851,37.038c0,2.606,9.015,2.067,21.695,2.067H63.874c30,0,50.664-3.129,50.664-7.753,0,0-1.267-25.224-4.135-27.5" fill="#eaeaea"/>
      <path id="Path_18209" data-name="Path 18209" d="M114.125,40.51c0,1.167-13.4,3.805-14.542,3.805H3.282A2.09,2.09,0,0,1,1.215,42.2V37.1c0-1.167.925-2.113,8.564-2.113L111.143,31.2c2.791,0,2.982.946,2.982,2.113Z" fill="#091119"/>
      <path id="Path_18210" data-name="Path 18210" d="M115.34,38.661c0,1.167-13.76,3.805-14.927,3.805H2.113A2.113,2.113,0,0,1,0,40.353v-5.1c0-1.167.946-2.113,8.61-2.113l102.843-3.784c2.481,0,3.887.946,3.887,2.113Z" fill="#d3d3d3"/>
      <path id="Path_18211" data-name="Path 18211" d="M100.412,42.466c.4,0,2.666-.3,5.442-.737a9.261,9.261,0,0,0,.41-2.716,9.44,9.44,0,0,0-18.881,0,9.326,9.326,0,0,0,.665,3.453Z" fill="#091119"/>
      <path id="Path_18212" data-name="Path 18212" d="M29.752,42.466a9.326,9.326,0,0,0,.665-3.453,9.44,9.44,0,0,0-18.881,0,9.326,9.326,0,0,0,.665,3.453Z" fill="#091119"/>
      <path id="Path_18213" data-name="Path 18213" d="M13.243,39.013a7.733,7.733,0,1,1,7.733,7.733,7.733,7.733,0,0,1-7.733-7.733" fill="#2a2a2b"/>
      <path id="Path_18214" data-name="Path 18214" d="M17.25,35.286a5.271,5.271,0,1,1,0,7.454,5.271,5.271,0,0,1,0-7.454" fill="#97989c"/>
      <path id="Path_18215" data-name="Path 18215" d="M17.855,35.892c2.059-2.058,1.491,1.305,3.215,3.029s5.087,1.156,3.028,3.214-1.49-1.3-3.214-3.028S15.8,37.95,17.855,35.892" fill="#2a2a2b"/>
      <path id="Path_18216" data-name="Path 18216" d="M24.1,35.892c2.058,2.058-1.305,1.491-3.029,3.215s-1.156,5.087-3.214,3.028,1.3-1.49,3.028-3.214,1.157-5.087,3.215-3.029" fill="#2a2a2b"/>
      <path id="Path_18217" data-name="Path 18217" d="M19.965,38a1.431,1.431,0,1,1,0,2.024,1.431,1.431,0,0,1,0-2.024" fill="#97989c"/>
      <path id="Path_18218" data-name="Path 18218" d="M89.091,39.013a7.733,7.733,0,1,1,7.733,7.733,7.733,7.733,0,0,1-7.733-7.733" fill="#2a2a2b"/>
      <path id="Path_18219" data-name="Path 18219" d="M93.1,35.286a5.271,5.271,0,1,1,0,7.454,5.271,5.271,0,0,1,0-7.454" fill="#97989c"/>
      <path id="Path_18220" data-name="Path 18220" d="M93.7,35.892c2.058-2.058,1.491,1.305,3.215,3.029s5.087,1.156,3.028,3.214-1.49-1.3-3.214-3.028S91.644,37.95,93.7,35.892" fill="#2a2a2b"/>
      <path id="Path_18221" data-name="Path 18221" d="M99.946,35.892c2.059,2.058-1.305,1.491-3.029,3.215s-1.156,5.087-3.214,3.028,1.3-1.49,3.028-3.214,1.157-5.087,3.215-3.029" fill="#2a2a2b"/>
      <path id="Path_18222" data-name="Path 18222" d="M95.812,38a1.431,1.431,0,1,1,0,2.024,1.431,1.431,0,0,1,0-2.024" fill="#97989c"/>
      <path id="Path_18223" data-name="Path 18223" d="M62.446,25.349a.792.792,0,0,1-.792.792H56.107a.792.792,0,1,1,0-1.584h5.547a.792.792,0,0,1,.792.792" fill="#2a2a2b"/>
      <path id="Path_18224" data-name="Path 18224" d="M80.672,25.349a.792.792,0,0,1-.792.792H74.333a.792.792,0,1,1,0-1.584H79.88a.792.792,0,0,1,.792.792" fill="#2a2a2b"/>
      <path id="Path_18225" data-name="Path 18225" d="M3.609,29.285s8.374-.517,13.336-5.893c-3.308.414-12.509.827-13.336,5.893" fill="#fff"/>
      <path id="Path_18226" data-name="Path 18226" d="M23.872,23.805S41.449,9.125,57.164,8.4s43.625-.931,45.486-.931,2.481.621,2.894,4.032-.413,6.41-3.721,6.41-77.951,5.893-77.951,5.893" fill="#091119"/>
      <path id="Path_18227" data-name="Path 18227" d="M57.212,9.457c-6.735.31-13.892,3.305-19.786,6.552a23.6,23.6,0,0,0,.688,5.618c5.318-.417,11.665-.912,18.265-1.423.558-3.6,1.142-7.2,1.787-10.789l-.954.042" fill="#80c2dc"/>
      <path id="Path_18228" data-name="Path 18228" d="M86.376,17.188a33.136,33.136,0,0,0,.664-8.5c-6.867.1-14.952.253-22.079.475a53.785,53.785,0,0,0-.036,10.377c7.571-.583,15.032-1.152,21.253-1.615.065-.247.139-.492.2-.74" fill="#80c2dc"/>
      <path id="Path_18229" data-name="Path 18229" d="M39,19.4H37.617a2.86,2.86,0,0,0-2.608,2.077,1.559,1.559,0,0,0,1.546,2.077h1.386Z" fill="#d3d3d3"/>
      <path id="Path_18230" data-name="Path 18230" d="M102.543,21.511l-14.816.756v1.717l14.816-.756a.846.846,0,0,0,.713-.9.749.749,0,0,0-.713-.822" fill="#091119"/>
      <path id="Path_18231" data-name="Path 18231" d="M110.465,6.021c-.643-1.212-1.133,2.672-.87,6.341l1.486,13.571a2.484,2.484,0,0,0,2.712,2.042s-1.446-18.407-3.328-21.954" fill="#af2d00"/>
      <path id="Path_18232" data-name="Path 18232" d="M110.061,16.619l2.26-2.26c-.526-3.689-1.161-7.028-1.856-8.338-.644-1.213-1.133,2.672-.87,6.341Z" fill="#fff"/>
      <path id="Path_18233" data-name="Path 18233" d="M113.051,20.232c-.157-1.426-.335-2.935-.532-4.423l-2.3,2.3.489,4.466Z" fill="#fff"/>
    </g>
  </g>
</svg>
