<svg xmlns="http://www.w3.org/2000/svg" xmlns:xlink="http://www.w3.org/1999/xlink" width="55.896" height="55.238" viewBox="0 0 55.896 55.238">
  <defs>
    <clipPath id="clip-path">
      <rect id="Rectangle_4566" data-name="Rectangle 4566" width="55.896" height="55.238" transform="translate(0 0)" fill="none"/>
    </clipPath>
  </defs>
  <g id="Group_21417" data-name="Group 21417" transform="translate(0 0.003)">
    <g id="Group_21413" data-name="Group 21413" transform="translate(0 -0.003)" clip-path="url(#clip-path)">
      <path id="Path_18234" data-name="Path 18234" d="M360.64,338.773h20.612v-.2a2.862,2.862,0,0,0-2.862-2.862H360.64Z" transform="translate(-340.839 -317.275)" fill="#25dddb"/>
      <rect id="Rectangle_4561" data-name="Rectangle 4561" width="14.491" height="1.584" transform="translate(1.049 2.551)" fill="#25dddb"/>
      <path id="Path_18235" data-name="Path 18235" d="M6.761,32.959H1.533a1.533,1.533,0,1,0,0,3.066H6.761a1.533,1.533,0,0,0,0-3.066" transform="translate(0 -31.149)" fill="#6796ae"/>
      <rect id="Rectangle_4562" data-name="Rectangle 4562" width="1.532" height="27.268" transform="translate(19.035 26.788)" fill="#9ed4f0"/>
      <rect id="Rectangle_4563" data-name="Rectangle 4563" width="1.532" height="27.268" transform="translate(9.619 31.323) rotate(-45)" fill="#9ed4f0"/>
      <rect id="Rectangle_4564" data-name="Rectangle 4564" width="27.268" height="1.532" transform="translate(6.167 39.656)" fill="#9ed4f0"/>
      <rect id="Rectangle_4565" data-name="Rectangle 4565" width="27.268" height="1.532" transform="matrix(0.707, -0.707, 0.707, 0.707, 9.619, 49.521)" fill="#9ed4f0"/>
      <path id="Path_18236" data-name="Path 18236" d="M240.93,26l-4.956,1.328-6.458-24.1A2.565,2.565,0,0,1,231.329.085h0A2.566,2.566,0,0,1,234.471,1.9Z" transform="translate(-216.83 0.003)" fill="#6796ae"/>
      <path id="Path_18237" data-name="Path 18237" d="M275.46,638.774c0,.2-.02.409-.02.593a5.412,5.412,0,0,1-.92,2.413,5.738,5.738,0,0,1-1.145,1.186,5.294,5.294,0,0,1-3.987,1,5.216,5.216,0,0,1-2.494-1.1,4.775,4.775,0,0,1-1.083-1.227,5.169,5.169,0,0,1-.838-2.269c0-.184-.02-.388-.02-.593a5.589,5.589,0,0,1,.1-1.022,5.383,5.383,0,0,1,.961-2.147,5.161,5.161,0,0,1,1.165-1.145,5.289,5.289,0,0,1,3.843-.9,5.506,5.506,0,0,1,2.065.8,5.078,5.078,0,0,1,1.186,1.1,4.961,4.961,0,0,1,1.083,2.29,5.587,5.587,0,0,1,.1,1.022" transform="translate(-250.405 -598.717)" fill="#394e56"/>
      <path id="Path_18238" data-name="Path 18238" d="M301.227,666.42a3.665,3.665,0,1,1-3.665-3.665,3.665,3.665,0,0,1,3.665,3.665" transform="translate(-277.762 -626.366)" fill="#72a7c2"/>
      <path id="Path_18239" data-name="Path 18239" d="M793.645,822.9a5.131,5.131,0,1,1-6.285-3.628,5.131,5.131,0,0,1,6.285,3.628" transform="translate(-740.534 -774.121)" fill="#394e56"/>
      <path id="Path_18240" data-name="Path 18240" d="M812.506,843.182a3.971,3.971,0,1,1-4.863-2.808,3.971,3.971,0,0,1,4.863,2.808" transform="translate(-760.517 -794.104)" fill="#fff"/>
      <path id="Path_18241" data-name="Path 18241" d="M796.642,658.553l-3.811-14.223-1.654.443L794.987,659a.625.625,0,0,0,.765.442l.448-.12a.625.625,0,0,0,.442-.765" transform="translate(-747.737 -608.953)" fill="#72a7c2"/>
      <path id="Path_18242" data-name="Path 18242" d="M848.5,881.792c.018.066.029.134.045.193a1.814,1.814,0,0,1-.088.86,1.926,1.926,0,0,1-.268.483,1.772,1.772,0,0,1-1.2.669,1.747,1.747,0,0,1-.9-.141,1.6,1.6,0,0,1-.457-.3,1.732,1.732,0,0,1-.468-.661c-.016-.06-.04-.124-.058-.19a1.868,1.868,0,0,1-.056-.339,1.8,1.8,0,0,1,.125-.777,1.727,1.727,0,0,1,.278-.471,1.769,1.769,0,0,1,1.165-.624,1.843,1.843,0,0,1,.737.079,1.7,1.7,0,0,1,.479.254,1.661,1.661,0,0,1,.549.647,1.862,1.862,0,0,1,.122.322" transform="translate(-798.642 -832.139)" fill="#394e56"/>
      <path id="Path_18243" data-name="Path 18243" d="M857.109,891.175a1.227,1.227,0,1,1-1.5-.868,1.227,1.227,0,0,1,1.5.868" transform="translate(-807.77 -841.385)" fill="#72a7c2"/>
      <path id="Path_18244" data-name="Path 18244" d="M561.492,554.7H548.343l3.328,5.933h9.821a2.966,2.966,0,0,0,0-5.933" transform="translate(-518.236 -524.24)" fill="#6796ae"/>
      <path id="Path_18245" data-name="Path 18245" d="M99.548,453.529A15.168,15.168,0,1,0,114.717,468.7a15.168,15.168,0,0,0-15.168-15.168m0,27.3A12.135,12.135,0,1,1,111.683,468.7a12.135,12.135,0,0,1-12.135,12.135" transform="translate(-79.747 -428.628)" fill="#394e56"/>
      <path id="Path_18246" data-name="Path 18246" d="M862.646,770.968H854.7v-2.039h7.949a1.02,1.02,0,1,1,0,2.039" transform="translate(-807.77 -726.711)" fill="#72a7c2"/>
    </g>
  </g>
</svg>
